<svg xmlns="http://www.w3.org/2000/svg" xmlns:xlink="http://www.w3.org/1999/xlink" width="500" zoomAndPan="magnify" viewBox="0 0 375 374.999991" height="500" preserveAspectRatio="xMidYMid meet" version="1.0"><defs><clipPath id="id1"><path d="M 38.625 104.0625 L 336.371094 104.0625 L 336.371094 271.3125 L 38.625 271.3125 Z M 38.625 104.0625 " clip-rule="nonzero"/></clipPath></defs><path fill="#f4f7ff" d="M 17.25 0 L 357.75 0 C 362.324219 0 366.710938 1.816406 369.949219 5.050781 C 373.183594 8.289062 375 12.675781 375 17.25 L 375 357.75 C 375 362.324219 373.183594 366.710938 369.949219 369.949219 C 366.710938 373.183594 362.324219 375 357.75 375 L 17.25 375 C 12.675781 375 8.289062 373.183594 5.050781 369.949219 C 1.816406 366.710938 0 362.324219 0 357.75 L 0 17.25 C 0 12.675781 1.816406 8.289062 5.050781 5.050781 C 8.289062 1.816406 12.675781 0 17.25 0 " fill-opacity="1" fill-rule="nonzero"/><g clip-path="url(#id1)"><path fill="#1476ff" d="M 318.203125 231.46875 C 320.445312 231.46875 322.269531 233.296875 322.269531 235.546875 C 322.269531 237.792969 320.445312 239.621094 318.203125 239.621094 C 315.960938 239.621094 314.136719 237.792969 314.136719 235.546875 C 314.136719 233.296875 315.960938 231.46875 318.203125 231.46875 Z M 264.53125 232.003906 C 266.777344 232.003906 268.601562 233.832031 268.601562 236.097656 C 268.601562 238.34375 266.777344 240.175781 264.53125 240.175781 C 262.289062 240.175781 260.464844 238.34375 260.464844 236.097656 C 260.464844 233.832031 262.289062 232.003906 264.53125 232.003906 Z M 329.242188 256.613281 C 331.484375 256.613281 333.308594 258.441406 333.308594 260.6875 C 333.308594 262.953125 331.484375 264.78125 329.242188 264.78125 C 327 264.78125 325.15625 262.953125 325.15625 260.6875 C 325.15625 258.441406 327 256.613281 329.242188 256.613281 Z M 213.675781 177.164062 L 161.527344 177.164062 L 161.527344 147.183594 C 161.527344 132.785156 173.234375 121.050781 187.601562 121.050781 C 201.988281 121.050781 213.675781 132.785156 213.675781 147.183594 Z M 198.605469 255.5625 L 176.390625 255.5625 L 182.015625 217.011719 C 178.328125 215.03125 175.839844 211.164062 175.839844 206.6875 C 175.839844 200.230469 181.066406 195.011719 187.507812 195.011719 C 193.949219 195.011719 199.15625 200.230469 199.15625 206.6875 C 199.15625 211.164062 196.667969 215.03125 193 217.011719 Z M 45.773438 264.78125 C 43.511719 264.78125 41.6875 262.953125 41.6875 260.6875 C 41.6875 258.441406 43.511719 256.613281 45.773438 256.613281 C 48.015625 256.613281 49.839844 258.441406 49.839844 260.6875 C 49.839844 262.953125 48.015625 264.78125 45.773438 264.78125 Z M 110.464844 240.175781 C 108.21875 240.175781 106.394531 238.34375 106.394531 236.097656 C 106.394531 233.832031 108.21875 232.003906 110.464844 232.003906 C 112.707031 232.003906 114.53125 233.832031 114.53125 236.097656 C 114.53125 238.34375 112.707031 240.175781 110.464844 240.175781 Z M 56.792969 239.621094 C 54.550781 239.621094 52.726562 237.792969 52.726562 235.546875 C 52.726562 233.296875 54.550781 231.46875 56.792969 231.46875 C 59.054688 231.46875 60.878906 233.296875 60.878906 235.546875 C 60.878906 237.792969 59.054688 239.621094 56.792969 239.621094 Z M 45.773438 215.242188 C 43.511719 215.242188 41.6875 213.414062 41.6875 211.164062 C 41.6875 208.917969 43.511719 207.089844 45.773438 207.089844 C 48.015625 207.089844 49.839844 208.917969 49.839844 211.164062 C 49.839844 213.414062 48.015625 215.242188 45.773438 215.242188 Z M 110.464844 202.839844 C 108.21875 202.839844 106.394531 201.011719 106.394531 198.765625 C 106.394531 196.519531 108.21875 194.6875 110.464844 194.6875 C 112.707031 194.6875 114.53125 196.519531 114.53125 198.765625 C 114.53125 201.011719 112.707031 202.839844 110.464844 202.839844 Z M 70.914062 202.839844 C 68.671875 202.839844 66.828125 201.011719 66.828125 198.765625 C 66.828125 196.519531 68.671875 194.6875 70.914062 194.6875 C 73.15625 194.6875 74.980469 196.519531 74.980469 198.765625 C 74.980469 201.011719 73.15625 202.839844 70.914062 202.839844 Z M 45.773438 190.6875 C 43.511719 190.6875 41.6875 188.859375 41.6875 186.613281 C 41.6875 184.367188 43.511719 182.539062 45.773438 182.539062 C 48.015625 182.539062 49.839844 184.367188 49.839844 186.613281 C 49.839844 188.859375 48.015625 190.6875 45.773438 190.6875 Z M 61.089844 165.394531 C 58.847656 165.394531 57.023438 163.566406 57.023438 161.300781 C 57.023438 159.050781 58.847656 157.222656 61.089844 157.222656 C 63.332031 157.222656 65.175781 159.050781 65.175781 161.300781 C 65.175781 163.566406 63.332031 165.394531 61.089844 165.394531 Z M 101.570312 152.917969 C 99.328125 152.917969 97.503906 151.089844 97.503906 148.84375 C 97.503906 146.59375 99.328125 144.765625 101.570312 144.765625 C 103.8125 144.765625 105.636719 146.59375 105.636719 148.84375 C 105.636719 151.089844 103.8125 152.917969 101.570312 152.917969 Z M 58.941406 118.957031 C 56.699219 118.957031 54.875 117.109375 54.875 114.863281 C 54.875 112.613281 56.699219 110.785156 58.941406 110.785156 C 61.203125 110.785156 63.027344 112.613281 63.027344 114.863281 C 63.027344 117.109375 61.203125 118.957031 58.941406 118.957031 Z M 316.054688 110.785156 C 318.296875 110.785156 320.121094 112.613281 320.121094 114.863281 C 320.121094 117.109375 318.296875 118.957031 316.054688 118.957031 C 313.8125 118.957031 311.988281 117.109375 311.988281 114.863281 C 311.988281 112.613281 313.8125 110.785156 316.054688 110.785156 Z M 273.425781 144.765625 C 275.667969 144.765625 277.492188 146.59375 277.492188 148.84375 C 277.492188 151.089844 275.667969 152.917969 273.425781 152.917969 C 271.183594 152.917969 269.359375 151.089844 269.359375 148.84375 C 269.359375 146.59375 271.183594 144.765625 273.425781 144.765625 Z M 313.90625 157.222656 C 316.148438 157.222656 317.972656 159.050781 317.972656 161.300781 C 317.972656 163.566406 316.148438 165.394531 313.90625 165.394531 C 311.664062 165.394531 309.839844 163.566406 309.839844 161.300781 C 309.839844 159.050781 311.664062 157.222656 313.90625 157.222656 Z M 329.242188 182.539062 C 331.484375 182.539062 333.308594 184.367188 333.308594 186.613281 C 333.308594 188.859375 331.484375 190.6875 329.242188 190.6875 C 327 190.6875 325.15625 188.859375 325.15625 186.613281 C 325.15625 184.367188 327 182.539062 329.242188 182.539062 Z M 304.101562 194.6875 C 306.34375 194.6875 308.167969 196.519531 308.167969 198.765625 C 308.167969 201.011719 306.34375 202.839844 304.101562 202.839844 C 301.839844 202.839844 300.015625 201.011719 300.015625 198.765625 C 300.015625 196.519531 301.839844 194.6875 304.101562 194.6875 Z M 264.53125 194.6875 C 266.777344 194.6875 268.601562 196.519531 268.601562 198.765625 C 268.601562 201.011719 266.777344 202.839844 264.53125 202.839844 C 262.289062 202.839844 260.464844 201.011719 260.464844 198.765625 C 260.464844 196.519531 262.289062 194.6875 264.53125 194.6875 Z M 329.242188 207.089844 C 331.484375 207.089844 333.308594 208.917969 333.308594 211.164062 C 333.308594 213.414062 331.484375 215.242188 329.242188 215.242188 C 327 215.242188 325.15625 213.414062 325.15625 211.164062 C 325.15625 208.917969 327 207.089844 329.242188 207.089844 Z M 322.269531 212.707031 C 322.972656 215.90625 325.824219 218.308594 329.242188 218.308594 C 333.175781 218.308594 336.371094 215.109375 336.371094 211.164062 C 336.371094 207.222656 333.175781 204.003906 329.242188 204.003906 C 325.824219 204.003906 322.972656 206.421875 322.269531 209.621094 L 246.441406 209.621094 L 246.441406 200.230469 L 257.558594 200.230469 C 258.222656 203.46875 261.113281 205.925781 264.53125 205.925781 C 268.46875 205.925781 271.679688 202.707031 271.679688 198.765625 C 271.679688 194.824219 268.46875 191.605469 264.53125 191.605469 C 261.148438 191.605469 258.320312 193.984375 257.578125 197.164062 L 246.441406 197.164062 L 246.441406 187.773438 L 277.398438 187.773438 L 289.902344 200.308594 L 297.125 200.308594 C 297.828125 203.507812 300.679688 205.925781 304.101562 205.925781 C 308.035156 205.925781 311.226562 202.707031 311.226562 198.765625 C 311.226562 194.824219 308.035156 191.605469 304.101562 191.605469 C 300.679688 191.605469 297.828125 194.023438 297.125 197.222656 L 291.160156 197.222656 L 278.671875 184.691406 L 246.042969 184.691406 C 244.789062 180.347656 240.777344 177.164062 236.046875 177.164062 L 230.648438 177.164062 L 230.648438 175.300781 L 292.109375 175.300781 L 304.917969 188.15625 L 322.269531 188.15625 C 322.972656 191.355469 325.824219 193.757812 329.242188 193.757812 C 333.175781 193.757812 336.371094 190.554688 336.371094 186.613281 C 336.371094 182.671875 333.175781 179.453125 329.242188 179.453125 C 325.824219 179.453125 322.972656 181.871094 322.269531 185.070312 L 306.191406 185.070312 L 293.382812 172.234375 L 230.648438 172.234375 L 230.648438 162.84375 L 306.933594 162.84375 C 307.636719 166.0625 310.484375 168.460938 313.90625 168.460938 C 317.839844 168.460938 321.035156 165.261719 321.035156 161.300781 C 321.035156 157.355469 317.839844 154.15625 313.90625 154.15625 C 310.484375 154.15625 307.636719 156.558594 306.933594 159.777344 L 230.648438 159.777344 L 230.648438 150.386719 L 266.453125 150.386719 C 267.15625 153.585938 270.023438 156.003906 273.425781 156.003906 C 277.359375 156.003906 280.574219 152.785156 280.574219 148.84375 C 280.574219 144.898438 277.359375 141.679688 273.425781 141.679688 C 270.023438 141.679688 267.15625 144.101562 266.453125 147.300781 L 230.648438 147.300781 L 230.648438 147.183594 C 230.648438 144.003906 230.304688 140.898438 229.640625 137.910156 L 274.074219 137.910156 L 295.53125 116.40625 L 309.078125 116.40625 C 309.78125 119.605469 312.632812 122.023438 316.054688 122.023438 C 319.988281 122.023438 323.179688 118.804688 323.179688 114.863281 C 323.179688 110.917969 319.988281 107.71875 316.054688 107.71875 C 312.632812 107.71875 309.78125 110.121094 309.078125 113.339844 L 294.257812 113.339844 L 272.800781 134.84375 L 228.84375 134.84375 C 223.539062 117.050781 207.0625 104.0625 187.601562 104.0625 C 168.160156 104.0625 151.683594 117.050781 146.363281 134.84375 L 102.214844 134.84375 L 80.738281 113.339844 L 65.917969 113.339844 C 65.214844 110.121094 62.363281 107.71875 58.941406 107.71875 C 55.007812 107.71875 51.816406 110.917969 51.816406 114.863281 C 51.816406 118.804688 55.007812 122.023438 58.941406 122.023438 C 62.363281 122.023438 65.214844 119.605469 65.917969 116.40625 L 79.46875 116.40625 L 100.941406 137.910156 L 145.566406 137.910156 C 144.917969 140.898438 144.558594 144.003906 144.558594 147.183594 L 144.558594 147.300781 L 108.542969 147.300781 C 107.839844 144.101562 104.988281 141.679688 101.570312 141.679688 C 97.636719 141.679688 94.441406 144.898438 94.441406 148.84375 C 94.441406 152.785156 97.636719 156.003906 101.570312 156.003906 C 104.988281 156.003906 107.839844 153.585938 108.542969 150.386719 L 144.558594 150.386719 L 144.558594 159.777344 L 68.0625 159.777344 C 67.359375 156.558594 64.511719 154.15625 61.089844 154.15625 C 57.15625 154.15625 53.960938 157.355469 53.960938 161.300781 C 53.960938 165.261719 57.15625 168.460938 61.089844 168.460938 C 64.511719 168.460938 67.359375 166.0625 68.0625 162.84375 L 144.558594 162.84375 L 144.558594 172.234375 L 81.613281 172.234375 L 68.804688 185.070312 L 52.726562 185.070312 C 52.023438 181.871094 49.171875 179.453125 45.773438 179.453125 C 41.835938 179.453125 38.625 182.671875 38.625 186.613281 C 38.625 190.554688 41.835938 193.757812 45.773438 193.757812 C 49.171875 193.757812 52.023438 191.355469 52.726562 188.15625 L 70.078125 188.15625 L 82.886719 175.300781 L 144.558594 175.300781 L 144.558594 177.164062 L 139.179688 177.164062 C 134.429688 177.164062 130.4375 180.347656 129.183594 184.691406 L 96.34375 184.691406 L 83.835938 197.222656 L 77.871094 197.222656 C 77.167969 194.023438 74.316406 191.605469 70.914062 191.605469 C 66.980469 191.605469 63.769531 194.824219 63.769531 198.765625 C 63.769531 202.707031 66.980469 205.925781 70.914062 205.925781 C 74.316406 205.925781 77.167969 203.507812 77.871094 200.308594 L 85.109375 200.308594 L 97.617188 187.773438 L 128.765625 187.773438 L 128.765625 197.164062 L 117.417969 197.164062 C 116.695312 193.984375 113.847656 191.605469 110.464844 191.605469 C 106.527344 191.605469 103.316406 194.824219 103.316406 198.765625 C 103.316406 202.707031 106.527344 205.925781 110.464844 205.925781 C 113.902344 205.925781 116.773438 203.46875 117.457031 200.230469 L 128.765625 200.230469 L 128.765625 209.621094 L 52.726562 209.621094 C 52.023438 206.421875 49.171875 204.003906 45.773438 204.003906 C 41.835938 204.003906 38.625 207.222656 38.625 211.164062 C 38.625 215.109375 41.835938 218.308594 45.773438 218.308594 C 49.171875 218.308594 52.023438 215.90625 52.726562 212.707031 L 128.765625 212.707031 L 128.765625 222.097656 L 100.941406 222.097656 L 89.046875 234.003906 L 63.769531 234.003906 C 63.066406 230.804688 60.214844 228.382812 56.792969 228.382812 C 52.859375 228.382812 49.667969 231.601562 49.667969 235.546875 C 49.667969 239.488281 52.859375 242.6875 56.792969 242.6875 C 60.214844 242.6875 63.066406 240.289062 63.769531 237.089844 L 90.320312 237.089844 L 102.214844 225.164062 L 128.765625 225.164062 L 128.765625 234.554688 L 117.4375 234.554688 C 116.734375 231.335938 113.863281 228.9375 110.464844 228.9375 C 106.527344 228.9375 103.316406 232.136719 103.316406 236.097656 C 103.316406 240.039062 106.527344 243.242188 110.464844 243.242188 C 113.863281 243.242188 116.734375 240.839844 117.4375 237.621094 L 128.765625 237.621094 L 128.765625 247.011719 L 72.417969 247.011719 L 60.308594 259.164062 L 52.726562 259.164062 C 52.023438 255.945312 49.171875 253.546875 45.773438 253.546875 C 41.835938 253.546875 38.625 256.746094 38.625 260.6875 C 38.625 264.648438 41.835938 267.851562 45.773438 267.851562 C 49.171875 267.851562 52.023438 265.449219 52.726562 262.230469 L 61.566406 262.230469 L 73.6875 250.097656 L 128.765625 250.097656 L 128.765625 261.070312 C 128.765625 266.839844 133.421875 271.507812 139.179688 271.507812 L 236.046875 271.507812 C 241.785156 271.507812 246.441406 266.839844 246.441406 261.070312 L 246.441406 250.097656 L 301.308594 250.097656 L 313.429688 262.230469 L 322.269531 262.230469 C 322.972656 265.449219 325.824219 267.851562 329.242188 267.851562 C 333.175781 267.851562 336.371094 264.648438 336.371094 260.6875 C 336.371094 256.746094 333.175781 253.546875 329.242188 253.546875 C 325.824219 253.546875 322.972656 255.945312 322.269531 259.164062 L 314.703125 259.164062 L 302.578125 247.011719 L 246.441406 247.011719 L 246.441406 237.621094 L 257.558594 237.621094 C 258.261719 240.839844 261.132812 243.242188 264.53125 243.242188 C 268.46875 243.242188 271.679688 240.039062 271.679688 236.097656 C 271.679688 232.136719 268.46875 228.9375 264.53125 228.9375 C 261.132812 228.9375 258.261719 231.335938 257.558594 234.554688 L 246.441406 234.554688 L 246.441406 225.164062 L 272.800781 225.164062 L 284.679688 237.089844 L 311.226562 237.089844 C 311.929688 240.289062 314.78125 242.6875 318.203125 242.6875 C 322.136719 242.6875 325.328125 239.488281 325.328125 235.546875 C 325.328125 231.601562 322.136719 228.382812 318.203125 228.382812 C 314.78125 228.382812 311.929688 230.804688 311.226562 234.003906 L 285.949219 234.003906 L 274.074219 222.097656 L 246.441406 222.097656 L 246.441406 212.707031 L 322.269531 212.707031 " fill-opacity="1" fill-rule="nonzero"/></g></svg>