<svg xmlns="http://www.w3.org/2000/svg" xmlns:xlink="http://www.w3.org/1999/xlink" width="500" zoomAndPan="magnify" viewBox="0 0 375 374.999991" height="500" preserveAspectRatio="xMidYMid meet" version="1.0"><defs><clipPath id="id1"><path d="M 1.40625 60.992188 L 373.585938 60.992188 L 373.585938 269.492188 L 1.40625 269.492188 Z M 1.40625 60.992188 " clip-rule="nonzero"/></clipPath></defs><rect x="-37.5" width="450" fill="#ffffff" y="-37.499999" height="449.999989" fill-opacity="1"/><rect x="-37.5" width="450" fill="#ffffff" y="-37.499999" height="449.999989" fill-opacity="1"/><rect x="-37.5" width="450" fill="#ffffff" y="-37.499999" height="449.999989" fill-opacity="1"/><g clip-path="url(#id1)"><path fill="#1476ff" d="M 350.878906 219.820312 C 353.679688 219.820312 355.960938 222.101562 355.960938 224.902344 C 355.960938 227.703125 353.679688 229.984375 350.878906 229.984375 C 348.074219 229.984375 345.792969 227.703125 345.792969 224.902344 C 345.792969 222.101562 348.074219 219.820312 350.878906 219.820312 Z M 283.792969 220.484375 C 286.59375 220.484375 288.875 222.765625 288.875 225.589844 C 288.875 228.390625 286.59375 230.671875 283.792969 230.671875 C 280.988281 230.671875 278.707031 228.390625 278.707031 225.589844 C 278.707031 222.765625 280.988281 220.484375 283.792969 220.484375 Z M 364.679688 251.164062 C 367.480469 251.164062 369.761719 253.445312 369.761719 256.246094 C 369.761719 259.070312 367.480469 261.351562 364.679688 261.351562 C 361.875 261.351562 359.570312 259.070312 359.570312 256.246094 C 359.570312 253.445312 361.875 251.164062 364.679688 251.164062 Z M 220.222656 152.125 L 155.035156 152.125 L 155.035156 114.75 C 155.035156 96.796875 169.667969 82.171875 187.628906 82.171875 C 205.609375 82.171875 220.222656 96.796875 220.222656 114.75 Z M 201.382812 249.859375 L 173.613281 249.859375 L 180.644531 201.796875 C 176.035156 199.328125 172.921875 194.507812 172.921875 188.929688 C 172.921875 180.878906 179.457031 174.371094 187.507812 174.371094 C 195.5625 174.371094 202.070312 180.878906 202.070312 188.929688 C 202.070312 194.507812 198.960938 199.328125 194.375 201.796875 Z M 10.339844 261.351562 C 7.511719 261.351562 5.230469 259.070312 5.230469 256.246094 C 5.230469 253.445312 7.511719 251.164062 10.339844 251.164062 C 13.144531 251.164062 15.421875 253.445312 15.421875 256.246094 C 15.421875 259.070312 13.144531 261.351562 10.339844 261.351562 Z M 91.203125 230.671875 C 88.402344 230.671875 86.121094 228.390625 86.121094 225.589844 C 86.121094 222.765625 88.402344 220.484375 91.203125 220.484375 C 94.007812 220.484375 96.289062 222.765625 96.289062 225.589844 C 96.289062 228.390625 94.007812 230.671875 91.203125 230.671875 Z M 24.117188 229.984375 C 21.316406 229.984375 19.035156 227.703125 19.035156 224.902344 C 19.035156 222.101562 21.316406 219.820312 24.117188 219.820312 C 26.945312 219.820312 29.226562 222.101562 29.226562 224.902344 C 29.226562 227.703125 26.945312 229.984375 24.117188 229.984375 Z M 10.339844 199.589844 C 7.511719 199.589844 5.230469 197.308594 5.230469 194.507812 C 5.230469 191.707031 7.511719 189.425781 10.339844 189.425781 C 13.144531 189.425781 15.421875 191.707031 15.421875 194.507812 C 15.421875 197.308594 13.144531 199.589844 10.339844 199.589844 Z M 91.203125 184.132812 C 88.402344 184.132812 86.121094 181.851562 86.121094 179.050781 C 86.121094 176.25 88.402344 173.96875 91.203125 173.96875 C 94.007812 173.96875 96.289062 176.25 96.289062 179.050781 C 96.289062 181.851562 94.007812 184.132812 91.203125 184.132812 Z M 41.769531 184.132812 C 38.964844 184.132812 36.660156 181.851562 36.660156 179.050781 C 36.660156 176.25 38.964844 173.96875 41.769531 173.96875 C 44.570312 173.96875 46.851562 176.25 46.851562 179.050781 C 46.851562 181.851562 44.570312 184.132812 41.769531 184.132812 Z M 10.339844 168.984375 C 7.511719 168.984375 5.230469 166.703125 5.230469 163.902344 C 5.230469 161.097656 7.511719 158.820312 10.339844 158.820312 C 13.144531 158.820312 15.421875 161.097656 15.421875 163.902344 C 15.421875 166.703125 13.144531 168.984375 10.339844 168.984375 Z M 29.488281 137.449219 C 26.683594 137.449219 24.402344 135.167969 24.402344 132.34375 C 24.402344 129.542969 26.683594 127.261719 29.488281 127.261719 C 32.289062 127.261719 34.59375 129.542969 34.59375 132.34375 C 34.59375 135.167969 32.289062 137.449219 29.488281 137.449219 Z M 80.085938 121.894531 C 77.285156 121.894531 75.003906 119.617188 75.003906 116.816406 C 75.003906 114.011719 77.285156 111.734375 80.085938 111.734375 C 82.890625 111.734375 85.171875 114.011719 85.171875 116.816406 C 85.171875 119.617188 82.890625 121.894531 80.085938 121.894531 Z M 26.800781 79.558594 C 24 79.558594 21.71875 77.253906 21.71875 74.453125 C 21.71875 71.652344 24 69.371094 26.800781 69.371094 C 29.628906 69.371094 31.910156 71.652344 31.910156 74.453125 C 31.910156 77.253906 29.628906 79.558594 26.800781 79.558594 Z M 348.191406 69.371094 C 350.996094 69.371094 353.277344 71.652344 353.277344 74.453125 C 353.277344 77.253906 350.996094 79.558594 348.191406 79.558594 C 345.390625 79.558594 343.109375 77.253906 343.109375 74.453125 C 343.109375 71.652344 345.390625 69.371094 348.191406 69.371094 Z M 294.910156 111.734375 C 297.710938 111.734375 299.992188 114.011719 299.992188 116.816406 C 299.992188 119.617188 297.710938 121.894531 294.910156 121.894531 C 292.105469 121.894531 289.824219 119.617188 289.824219 116.816406 C 289.824219 114.011719 292.105469 111.734375 294.910156 111.734375 Z M 345.507812 127.261719 C 348.3125 127.261719 350.59375 129.542969 350.59375 132.34375 C 350.59375 135.167969 348.3125 137.449219 345.507812 137.449219 C 342.707031 137.449219 340.425781 135.167969 340.425781 132.34375 C 340.425781 129.542969 342.707031 127.261719 345.507812 127.261719 Z M 364.679688 158.820312 C 367.480469 158.820312 369.761719 161.097656 369.761719 163.902344 C 369.761719 166.703125 367.480469 168.984375 364.679688 168.984375 C 361.875 168.984375 359.570312 166.703125 359.570312 163.902344 C 359.570312 161.097656 361.875 158.820312 364.679688 158.820312 Z M 333.25 173.96875 C 336.054688 173.96875 338.335938 176.25 338.335938 179.050781 C 338.335938 181.851562 336.054688 184.132812 333.25 184.132812 C 330.421875 184.132812 328.144531 181.851562 328.144531 179.050781 C 328.144531 176.25 330.421875 173.96875 333.25 173.96875 Z M 283.792969 173.96875 C 286.59375 173.96875 288.875 176.25 288.875 179.050781 C 288.875 181.851562 286.59375 184.132812 283.792969 184.132812 C 280.988281 184.132812 278.707031 181.851562 278.707031 179.050781 C 278.707031 176.25 280.988281 173.96875 283.792969 173.96875 Z M 364.679688 189.425781 C 367.480469 189.425781 369.761719 191.707031 369.761719 194.507812 C 369.761719 197.308594 367.480469 199.589844 364.679688 199.589844 C 361.875 199.589844 359.570312 197.308594 359.570312 194.507812 C 359.570312 191.707031 361.875 189.425781 364.679688 189.425781 Z M 355.960938 196.433594 C 356.839844 200.421875 360.402344 203.414062 364.679688 203.414062 C 369.597656 203.414062 373.585938 199.421875 373.585938 194.507812 C 373.585938 189.59375 369.597656 185.582031 364.679688 185.582031 C 360.402344 185.582031 356.839844 188.597656 355.960938 192.585938 L 261.175781 192.585938 L 261.175781 180.878906 L 275.074219 180.878906 C 275.90625 184.914062 279.515625 187.980469 283.792969 187.980469 C 288.707031 187.980469 292.722656 183.964844 292.722656 179.050781 C 292.722656 174.136719 288.707031 170.121094 283.792969 170.121094 C 279.5625 170.121094 276.023438 173.089844 275.097656 177.054688 L 261.175781 177.054688 L 261.175781 165.347656 L 299.875 165.347656 L 315.503906 180.972656 L 324.53125 180.972656 C 325.410156 184.964844 328.972656 187.980469 333.25 187.980469 C 338.167969 187.980469 342.160156 183.964844 342.160156 179.050781 C 342.160156 174.136719 338.167969 170.121094 333.25 170.121094 C 328.972656 170.121094 325.410156 173.136719 324.53125 177.128906 L 317.074219 177.128906 L 301.464844 161.503906 L 260.675781 161.503906 C 259.109375 156.089844 254.097656 152.125 248.179688 152.125 L 241.433594 152.125 L 241.433594 149.796875 L 318.261719 149.796875 L 334.273438 165.824219 L 355.960938 165.824219 C 356.839844 169.8125 360.402344 172.804688 364.679688 172.804688 C 369.597656 172.804688 373.585938 168.816406 373.585938 163.902344 C 373.585938 158.984375 369.597656 154.972656 364.679688 154.972656 C 360.402344 154.972656 356.839844 157.988281 355.960938 161.976562 L 335.863281 161.976562 L 319.851562 145.972656 L 241.433594 145.972656 L 241.433594 134.265625 L 336.789062 134.265625 C 337.667969 138.28125 341.230469 141.273438 345.507812 141.273438 C 350.425781 141.273438 354.417969 137.28125 354.417969 132.34375 C 354.417969 127.429688 350.425781 123.441406 345.507812 123.441406 C 341.230469 123.441406 337.667969 126.429688 336.789062 130.445312 L 241.433594 130.445312 L 241.433594 118.738281 L 286.191406 118.738281 C 287.070312 122.726562 290.65625 125.742188 294.910156 125.742188 C 299.828125 125.742188 303.839844 121.730469 303.839844 116.816406 C 303.839844 111.898438 299.828125 107.886719 294.910156 107.886719 C 290.65625 107.886719 287.070312 110.902344 286.191406 114.890625 L 241.433594 114.890625 L 241.433594 114.75 C 241.433594 110.785156 241.007812 106.914062 240.175781 103.183594 L 295.714844 103.183594 L 322.535156 76.378906 L 339.472656 76.378906 C 340.351562 80.367188 343.917969 83.382812 348.191406 83.382812 C 353.109375 83.382812 357.101562 79.367188 357.101562 74.453125 C 357.101562 69.539062 353.109375 65.550781 348.191406 65.550781 C 343.917969 65.550781 340.351562 68.542969 339.472656 72.554688 L 320.945312 72.554688 L 294.125 99.363281 L 239.179688 99.363281 C 232.550781 77.183594 211.953125 60.992188 187.628906 60.992188 C 163.328125 60.992188 142.730469 77.183594 136.078125 99.363281 L 80.894531 99.363281 L 54.050781 72.554688 L 35.519531 72.554688 C 34.640625 68.542969 31.078125 65.550781 26.800781 65.550781 C 21.886719 65.550781 17.894531 69.539062 17.894531 74.453125 C 17.894531 79.367188 21.886719 83.382812 26.800781 83.382812 C 31.078125 83.382812 34.640625 80.367188 35.519531 76.378906 L 52.457031 76.378906 L 79.300781 103.183594 L 135.082031 103.183594 C 134.273438 106.914062 133.820312 110.785156 133.820312 114.75 L 133.820312 114.890625 L 88.804688 114.890625 C 87.925781 110.902344 84.363281 107.886719 80.085938 107.886719 C 75.167969 107.886719 71.179688 111.898438 71.179688 116.816406 C 71.179688 121.730469 75.167969 125.742188 80.085938 125.742188 C 84.363281 125.742188 87.925781 122.726562 88.804688 118.738281 L 133.820312 118.738281 L 133.820312 130.445312 L 38.207031 130.445312 C 37.328125 126.429688 33.761719 123.441406 29.488281 123.441406 C 24.570312 123.441406 20.578125 127.429688 20.578125 132.34375 C 20.578125 137.28125 24.570312 141.273438 29.488281 141.273438 C 33.761719 141.273438 37.328125 138.28125 38.207031 134.265625 L 133.820312 134.265625 L 133.820312 145.972656 L 55.144531 145.972656 L 39.132812 161.976562 L 19.035156 161.976562 C 18.15625 157.988281 14.59375 154.972656 10.339844 154.972656 C 5.421875 154.972656 1.40625 158.984375 1.40625 163.902344 C 1.40625 168.816406 5.421875 172.804688 10.339844 172.804688 C 14.59375 172.804688 18.15625 169.8125 19.035156 165.824219 L 40.722656 165.824219 L 56.734375 149.796875 L 133.820312 149.796875 L 133.820312 152.125 L 127.097656 152.125 C 121.160156 152.125 116.171875 156.089844 114.601562 161.503906 L 73.554688 161.503906 L 57.921875 177.128906 L 50.464844 177.128906 C 49.585938 173.136719 46.019531 170.121094 41.769531 170.121094 C 36.851562 170.121094 32.835938 174.136719 32.835938 179.050781 C 32.835938 183.964844 36.851562 187.980469 41.769531 187.980469 C 46.019531 187.980469 49.585938 184.964844 50.464844 180.972656 L 59.515625 180.972656 L 75.144531 165.347656 L 114.082031 165.347656 L 114.082031 177.054688 L 99.898438 177.054688 C 98.996094 173.089844 95.433594 170.121094 91.203125 170.121094 C 86.285156 170.121094 82.273438 174.136719 82.273438 179.050781 C 82.273438 183.964844 86.285156 187.980469 91.203125 187.980469 C 95.503906 187.980469 99.089844 184.914062 99.945312 180.878906 L 114.082031 180.878906 L 114.082031 192.585938 L 19.035156 192.585938 C 18.15625 188.597656 14.59375 185.582031 10.339844 185.582031 C 5.421875 185.582031 1.40625 189.59375 1.40625 194.507812 C 1.40625 199.421875 5.421875 203.414062 10.339844 203.414062 C 14.59375 203.414062 18.15625 200.421875 19.035156 196.433594 L 114.082031 196.433594 L 114.082031 208.136719 L 79.300781 208.136719 L 64.429688 222.980469 L 32.835938 222.980469 C 31.957031 218.988281 28.394531 215.972656 24.117188 215.972656 C 19.199219 215.972656 15.210938 219.988281 15.210938 224.902344 C 15.210938 229.816406 19.199219 233.804688 24.117188 233.804688 C 28.394531 233.804688 31.957031 230.816406 32.835938 226.824219 L 66.023438 226.824219 L 80.894531 211.960938 L 114.082031 211.960938 L 114.082031 223.667969 L 99.921875 223.667969 C 99.042969 219.65625 95.457031 216.664062 91.203125 216.664062 C 86.285156 216.664062 82.273438 220.652344 82.273438 225.589844 C 82.273438 230.503906 86.285156 234.496094 91.203125 234.496094 C 95.457031 234.496094 99.042969 231.503906 99.921875 227.488281 L 114.082031 227.488281 L 114.082031 239.195312 L 43.644531 239.195312 L 28.511719 254.347656 L 19.035156 254.347656 C 18.15625 250.332031 14.59375 247.339844 10.339844 247.339844 C 5.421875 247.339844 1.40625 251.332031 1.40625 256.246094 C 1.40625 261.183594 5.421875 265.171875 10.339844 265.171875 C 14.59375 265.171875 18.15625 262.179688 19.035156 258.167969 L 30.082031 258.167969 L 45.238281 243.042969 L 114.082031 243.042969 L 114.082031 256.71875 C 114.082031 263.914062 119.902344 269.734375 127.097656 269.734375 L 248.179688 269.734375 C 255.355469 269.734375 261.175781 263.914062 261.175781 256.71875 L 261.175781 243.042969 L 329.757812 243.042969 L 344.914062 258.167969 L 355.960938 258.167969 C 356.839844 262.179688 360.402344 265.171875 364.679688 265.171875 C 369.597656 265.171875 373.585938 261.183594 373.585938 256.246094 C 373.585938 251.332031 369.597656 247.339844 364.679688 247.339844 C 360.402344 247.339844 356.839844 250.332031 355.960938 254.347656 L 346.507812 254.347656 L 331.351562 239.195312 L 261.175781 239.195312 L 261.175781 227.488281 L 275.074219 227.488281 C 275.953125 231.503906 279.539062 234.496094 283.792969 234.496094 C 288.707031 234.496094 292.722656 230.503906 292.722656 225.589844 C 292.722656 220.652344 288.707031 216.664062 283.792969 216.664062 C 279.539062 216.664062 275.953125 219.65625 275.074219 223.667969 L 261.175781 223.667969 L 261.175781 211.960938 L 294.125 211.960938 L 308.972656 226.824219 L 342.160156 226.824219 C 343.039062 230.816406 346.601562 233.804688 350.878906 233.804688 C 355.792969 233.804688 359.785156 229.816406 359.785156 224.902344 C 359.785156 219.988281 355.792969 215.972656 350.878906 215.972656 C 346.601562 215.972656 343.039062 218.988281 342.160156 222.980469 L 310.5625 222.980469 L 295.714844 208.136719 L 261.175781 208.136719 L 261.175781 196.433594 L 355.960938 196.433594 " fill-opacity="1" fill-rule="nonzero"/></g></svg>