<svg xmlns="http://www.w3.org/2000/svg" xmlns:xlink="http://www.w3.org/1999/xlink" width="487" zoomAndPan="magnify" viewBox="0 0 365.25 551.999989" height="736" preserveAspectRatio="xMidYMid meet" version="1.0"><defs><clipPath id="id1"><path d="M 37 57.390625 L 182 57.390625 L 182 67.121094 L 37 67.121094 Z M 37 57.390625 " clip-rule="nonzero"/></clipPath><clipPath id="id2"><path d="M 156.960938 0.566406 L 207.855469 0.566406 L 207.855469 45.472656 L 156.960938 45.472656 Z M 156.960938 0.566406 " clip-rule="nonzero"/></clipPath><clipPath id="id3"><path d="M 41 82 L 88 82 L 88 135 L 41 135 Z M 41 82 " clip-rule="nonzero"/></clipPath><clipPath id="id4"><path d="M 60.304688 77.792969 L 99.511719 124.03125 L 75.535156 144.363281 L 36.328125 98.121094 Z M 60.304688 77.792969 " clip-rule="nonzero"/></clipPath><clipPath id="id5"><path d="M 60.304688 77.792969 L 99.511719 124.03125 L 75.535156 144.363281 L 36.328125 98.121094 Z M 60.304688 77.792969 " clip-rule="nonzero"/></clipPath><clipPath id="id6"><path d="M 250.488281 45.660156 L 355.273438 45.660156 L 355.273438 132.480469 L 250.488281 132.480469 Z M 250.488281 45.660156 " clip-rule="nonzero"/></clipPath><clipPath id="id7"><path d="M 120 144.34375 L 283 144.34375 L 283 474 L 120 474 Z M 120 144.34375 " clip-rule="nonzero"/></clipPath><clipPath id="id8"><path d="M 9 472 L 364.5 472 L 364.5 474.414062 L 9 474.414062 Z M 9 472 " clip-rule="nonzero"/></clipPath><clipPath id="id9"><path d="M 0 270.886719 L 81.582031 270.886719 L 81.582031 359.953125 L 0 359.953125 Z M 0 270.886719 " clip-rule="nonzero"/></clipPath><clipPath id="id10"><path d="M 11.84375 307 L 61.242188 307 L 61.242188 345.605469 L 11.84375 345.605469 Z M 11.84375 307 " clip-rule="nonzero"/></clipPath><clipPath id="id11"><path d="M 239.515625 349.058594 L 337.566406 349.058594 L 337.566406 435.132812 L 239.515625 435.132812 Z M 239.515625 349.058594 " clip-rule="nonzero"/></clipPath><clipPath id="id12"><path d="M 253.015625 354.460938 L 327.859375 354.460938 L 327.859375 429.308594 L 253.015625 429.308594 Z M 253.015625 354.460938 " clip-rule="nonzero"/></clipPath><clipPath id="id13"><path d="M 202 240 L 211 240 L 211 260.675781 L 202 260.675781 Z M 202 240 " clip-rule="nonzero"/></clipPath><clipPath id="id14"><path d="M 223 226 L 232 226 L 232 260.675781 L 223 260.675781 Z M 223 226 " clip-rule="nonzero"/></clipPath><clipPath id="id15"><path d="M 244 234 L 253 234 L 253 260.675781 L 244 260.675781 Z M 244 234 " clip-rule="nonzero"/></clipPath><clipPath id="id16"><path d="M 265 213 L 274 213 L 274 260.675781 L 265 260.675781 Z M 265 213 " clip-rule="nonzero"/></clipPath><clipPath id="id17"><path d="M 286 223 L 295 223 L 295 260.675781 L 286 260.675781 Z M 286 223 " clip-rule="nonzero"/></clipPath><clipPath id="id18"><path d="M 307 200 L 316 200 L 316 260.675781 L 307 260.675781 Z M 307 200 " clip-rule="nonzero"/></clipPath><clipPath id="id19"><path d="M 328 184 L 337 184 L 337 260.675781 L 328 260.675781 Z M 328 184 " clip-rule="nonzero"/></clipPath></defs><g clip-path="url(#id1)"><path fill="#abcaff" d="M 176.296875 57.390625 L 42.554688 57.390625 C 39.917969 57.390625 37.777344 59.566406 37.777344 62.253906 C 37.777344 64.941406 39.917969 67.121094 42.554688 67.121094 L 176.296875 67.121094 C 178.933594 67.121094 181.070312 64.941406 181.070312 62.253906 C 181.070312 59.566406 178.933594 57.390625 176.296875 57.390625 Z M 176.296875 57.390625 " fill-opacity="1" fill-rule="nonzero"/></g><g clip-path="url(#id2)"><path fill="#9240fb" d="M 174.285156 0.566406 L 190.535156 0.566406 C 200.101562 0.566406 207.855469 8.242188 207.855469 17.710938 L 207.855469 28.328125 C 207.855469 37.796875 200.101562 45.472656 190.535156 45.472656 L 174.285156 45.472656 C 164.714844 45.472656 156.960938 37.796875 156.960938 28.328125 L 156.960938 17.710938 C 156.960938 8.242188 164.714844 0.566406 174.285156 0.566406 " fill-opacity="1" fill-rule="nonzero"/></g><g clip-path="url(#id3)"><g clip-path="url(#id4)"><g clip-path="url(#id5)"><path fill="#ffb016" d="M 62.027344 128.433594 L 67.160156 124.082031 L 41.480469 93.796875 L 55.191406 82.167969 L 80.875 112.453125 L 86.003906 108.101562 L 87.503906 134.171875 Z M 62.027344 128.433594 " fill-opacity="1" fill-rule="nonzero"/></g></g></g><g clip-path="url(#id6)"><path fill="#1476ff" d="M 259.25 63.023438 L 250.523438 63.023438 L 250.523438 84.730469 L 250.566406 84.730469 L 250.523438 123.800781 C 250.523438 128.597656 254.425781 132.480469 259.25 132.480469 L 337.785156 132.480469 L 337.785156 123.800781 L 259.25 123.800781 Z M 346.511719 54.34375 L 311.605469 54.34375 L 302.878906 45.660156 L 276.703125 45.660156 C 271.878906 45.660156 268.019531 49.546875 268.019531 54.34375 L 267.976562 106.433594 C 267.976562 111.230469 271.878906 115.117188 276.703125 115.117188 L 346.511719 115.117188 C 351.332031 115.117188 355.238281 111.230469 355.238281 106.433594 L 355.238281 63.023438 C 355.238281 58.226562 351.332031 54.34375 346.511719 54.34375 Z M 281.0625 102.09375 L 300.699219 76.046875 L 315.96875 95.605469 L 326.878906 82.558594 L 342.148438 102.09375 Z M 281.0625 102.09375 " fill-opacity="1" fill-rule="nonzero"/></g><g clip-path="url(#id7)"><path fill="#3f3d56" d="M 251.84375 473.585938 L 148.480469 473.585938 C 132.976562 473.585938 120.363281 460.980469 120.363281 445.488281 L 120.363281 172.441406 C 120.363281 156.949219 132.976562 144.34375 148.480469 144.34375 L 251.84375 144.34375 C 267.34375 144.34375 279.957031 156.949219 279.957031 172.441406 C 281.882812 282.085938 285.164062 404.875 279.957031 445.488281 C 279.957031 460.980469 267.34375 473.585938 251.84375 473.585938 Z M 251.84375 473.585938 " fill-opacity="1" fill-rule="nonzero"/></g><path fill="#3f3d56" d="M 281.398438 244.78125 C 280.742188 244.78125 280.210938 245.3125 280.210938 245.96875 L 280.210938 284.003906 C 280.210938 284.660156 280.742188 285.191406 281.398438 285.191406 C 282.054688 285.191406 282.589844 284.660156 282.589844 284.003906 L 282.589844 245.96875 C 282.589844 245.3125 282.054688 244.78125 281.398438 244.78125 Z M 281.398438 244.78125 " fill-opacity="1" fill-rule="nonzero"/><path fill="#ffffff" d="M 277.28125 172.441406 L 277.28125 445.484375 C 277.28125 458.96875 266.777344 470 253.5 470.855469 L 253.492188 470.855469 C 253.296875 470.867188 253.101562 470.878906 252.898438 470.882812 C 252.546875 470.902344 252.195312 470.90625 251.839844 470.90625 C 251.839844 470.90625 250.53125 470.8125 248.140625 470.632812 C 245.726562 470.457031 242.210938 470.1875 237.828125 469.839844 C 236.515625 469.738281 235.128906 469.625 233.664062 469.503906 C 230.75 469.269531 227.550781 469.007812 224.121094 468.710938 C 222.753906 468.597656 221.335938 468.472656 219.890625 468.347656 C 212.503906 467.710938 204.234375 466.96875 195.507812 466.125 C 194.035156 465.988281 192.546875 465.84375 191.046875 465.695312 C 190.65625 465.65625 123.039062 448.667969 123.039062 445.484375 L 123.039062 172.441406 C 123.039062 158.398438 134.429688 147.015625 148.484375 147.015625 L 163.671875 147.015625 C 166.097656 147.015625 168.050781 148.90625 168.257812 151.324219 C 168.273438 151.484375 168.292969 151.644531 168.324219 151.804688 C 168.761719 154.238281 170.992188 155.929688 173.46875 155.929688 L 226.855469 155.929688 C 229.328125 155.929688 231.558594 154.238281 232 151.804688 C 232.03125 151.644531 232.046875 151.484375 232.066406 151.324219 C 232.273438 148.90625 234.222656 147.015625 236.652344 147.015625 L 251.839844 147.015625 C 265.894531 147.015625 277.28125 158.398438 277.28125 172.441406 Z M 277.28125 172.441406 " fill-opacity="1" fill-rule="nonzero"/><path fill="#3f3d56" d="M 119.769531 216.253906 C 119.113281 216.253906 118.582031 216.785156 118.582031 217.441406 L 118.582031 226.953125 C 118.582031 227.605469 119.113281 228.140625 119.769531 228.140625 C 120.425781 228.140625 120.957031 227.605469 120.957031 226.953125 L 120.957031 217.441406 C 120.957031 216.785156 120.425781 216.253906 119.769531 216.253906 Z M 119.769531 216.253906 " fill-opacity="1" fill-rule="nonzero"/><path fill="#3f3d56" d="M 119.769531 244.78125 C 119.113281 244.78125 118.582031 245.3125 118.582031 245.96875 L 118.582031 264.390625 C 118.582031 265.046875 119.113281 265.582031 119.769531 265.582031 C 120.425781 265.582031 120.957031 265.046875 120.957031 264.390625 L 120.957031 245.96875 C 120.957031 245.3125 120.425781 244.78125 119.769531 244.78125 Z M 119.769531 244.78125 " fill-opacity="1" fill-rule="nonzero"/><path fill="#3f3d56" d="M 119.769531 270.929688 C 119.113281 270.929688 118.582031 271.460938 118.582031 272.117188 L 118.582031 290.542969 C 118.582031 291.195312 119.113281 291.730469 119.769531 291.730469 C 120.425781 291.730469 120.957031 291.195312 120.957031 290.542969 L 120.957031 272.117188 C 120.957031 271.460938 120.425781 270.929688 119.769531 270.929688 Z M 119.769531 270.929688 " fill-opacity="1" fill-rule="nonzero"/><path fill="#e6e6e6" d="M 140.488281 151.179688 L 163.28125 151.179688 C 163.414062 151.179688 163.480469 151.246094 163.480469 151.378906 L 163.480469 153.949219 C 163.480469 154.082031 163.414062 154.148438 163.28125 154.148438 L 140.488281 154.148438 C 140.355469 154.148438 140.289062 154.082031 140.289062 153.949219 L 140.289062 151.378906 C 140.289062 151.246094 140.355469 151.179688 140.488281 151.179688 Z M 140.488281 151.179688 " fill-opacity="1" fill-rule="nonzero"/><path fill="#e6e6e6" d="M 242.789062 151.773438 C 242.789062 152.085938 242.726562 152.390625 242.605469 152.683594 C 242.488281 152.972656 242.3125 153.230469 242.089844 153.453125 C 241.867188 153.675781 241.609375 153.847656 241.320312 153.96875 C 241.027344 154.089844 240.722656 154.148438 240.410156 154.148438 C 240.09375 154.148438 239.789062 154.089844 239.5 153.96875 C 239.207031 153.847656 238.949219 153.675781 238.726562 153.453125 C 238.503906 153.230469 238.332031 152.972656 238.210938 152.683594 C 238.089844 152.390625 238.03125 152.085938 238.03125 151.773438 C 238.03125 151.457031 238.089844 151.152344 238.210938 150.863281 C 238.332031 150.570312 238.503906 150.3125 238.726562 150.089844 C 238.949219 149.867188 239.207031 149.695312 239.5 149.574219 C 239.789062 149.457031 240.09375 149.394531 240.410156 149.394531 C 240.722656 149.394531 241.027344 149.457031 241.320312 149.574219 C 241.609375 149.695312 241.867188 149.867188 242.089844 150.089844 C 242.3125 150.3125 242.488281 150.570312 242.605469 150.863281 C 242.726562 151.152344 242.789062 151.457031 242.789062 151.773438 Z M 242.789062 151.773438 " fill-opacity="1" fill-rule="nonzero"/><path fill="#e6e6e6" d="M 249.328125 151.773438 C 249.328125 152.085938 249.269531 152.390625 249.148438 152.683594 C 249.027344 152.972656 248.855469 153.230469 248.632812 153.453125 C 248.410156 153.675781 248.152344 153.847656 247.859375 153.96875 C 247.570312 154.089844 247.265625 154.148438 246.949219 154.148438 C 246.636719 154.148438 246.332031 154.089844 246.039062 153.96875 C 245.75 153.847656 245.492188 153.675781 245.269531 153.453125 C 245.046875 153.230469 244.875 152.972656 244.753906 152.683594 C 244.632812 152.390625 244.570312 152.085938 244.570312 151.773438 C 244.570312 151.457031 244.632812 151.152344 244.753906 150.863281 C 244.875 150.570312 245.046875 150.3125 245.269531 150.089844 C 245.492188 149.867188 245.75 149.695312 246.039062 149.574219 C 246.332031 149.457031 246.636719 149.394531 246.949219 149.394531 C 247.265625 149.394531 247.570312 149.457031 247.859375 149.574219 C 248.152344 149.695312 248.410156 149.867188 248.632812 150.089844 C 248.855469 150.3125 249.027344 150.570312 249.148438 150.863281 C 249.269531 151.152344 249.328125 151.457031 249.328125 151.773438 Z M 249.328125 151.773438 " fill-opacity="1" fill-rule="nonzero"/><path fill="#e6e6e6" d="M 255.871094 151.773438 C 255.871094 152.085938 255.8125 152.390625 255.691406 152.683594 C 255.570312 152.972656 255.398438 153.230469 255.175781 153.453125 C 254.953125 153.675781 254.695312 153.847656 254.402344 153.96875 C 254.113281 154.089844 253.808594 154.148438 253.492188 154.148438 C 253.175781 154.148438 252.875 154.089844 252.582031 153.96875 C 252.292969 153.847656 252.035156 153.675781 251.8125 153.453125 C 251.585938 153.230469 251.414062 152.972656 251.296875 152.683594 C 251.175781 152.390625 251.113281 152.085938 251.113281 151.773438 C 251.113281 151.457031 251.175781 151.152344 251.296875 150.863281 C 251.414062 150.570312 251.585938 150.3125 251.8125 150.089844 C 252.035156 149.867188 252.292969 149.695312 252.582031 149.574219 C 252.875 149.457031 253.175781 149.394531 253.492188 149.394531 C 253.808594 149.394531 254.113281 149.457031 254.402344 149.574219 C 254.695312 149.695312 254.953125 149.867188 255.175781 150.089844 C 255.398438 150.3125 255.570312 150.570312 255.691406 150.863281 C 255.8125 151.152344 255.871094 151.457031 255.871094 151.773438 Z M 255.871094 151.773438 " fill-opacity="1" fill-rule="nonzero"/><g clip-path="url(#id8)"><path fill="#cccccc" d="M 9.339844 473.648438 C 9.339844 474.074219 9.683594 474.417969 10.109375 474.417969 L 363.621094 474.417969 C 364.046875 474.417969 364.390625 474.074219 364.390625 473.648438 C 364.390625 473.222656 364.046875 472.882812 363.621094 472.882812 L 10.109375 472.882812 C 9.683594 472.882812 9.339844 473.222656 9.339844 473.648438 Z M 9.339844 473.648438 " fill-opacity="1" fill-rule="nonzero"/></g><path fill="#ffb6b6" d="M 122.058594 468.613281 L 114.808594 468.613281 L 111.359375 440.671875 L 122.058594 440.671875 Z M 122.058594 468.613281 " fill-opacity="1" fill-rule="nonzero"/><path fill="#2f2e41" d="M 97.21875 468.449219 C 96.992188 468.828125 96.875 470.054688 96.875 470.496094 C 96.875 471.855469 97.976562 472.957031 99.335938 472.957031 L 121.785156 472.957031 C 122.714844 472.957031 123.464844 472.203125 123.464844 471.277344 L 123.464844 470.34375 C 123.464844 470.34375 124.574219 467.539062 122.289062 464.078125 C 122.289062 464.078125 119.445312 466.785156 115.199219 462.542969 L 113.949219 460.277344 L 104.882812 466.902344 L 99.859375 467.519531 C 98.757812 467.652344 97.785156 467.496094 97.21875 468.449219 Z M 97.21875 468.449219 " fill-opacity="1" fill-rule="nonzero"/><path fill="#ffb6b6" d="M 81.964844 429.800781 L 74.71875 429.777344 L 71.355469 401.824219 L 82.058594 401.859375 Z M 81.964844 429.800781 " fill-opacity="1" fill-rule="nonzero"/><path fill="#2f2e41" d="M 57.128906 429.558594 C 56.902344 429.9375 56.78125 431.164062 56.777344 431.605469 C 56.773438 432.964844 57.871094 434.066406 59.230469 434.074219 L 81.679688 434.144531 C 82.609375 434.148438 83.363281 433.398438 83.367188 432.472656 L 83.367188 431.539062 C 83.367188 431.539062 84.488281 428.734375 82.210938 425.265625 C 82.210938 425.265625 79.363281 427.964844 75.128906 423.710938 L 73.882812 421.4375 L 64.796875 428.035156 L 59.773438 428.636719 C 58.671875 428.769531 57.699219 428.609375 57.128906 429.558594 Z M 57.128906 429.558594 " fill-opacity="1" fill-rule="nonzero"/><path fill="#2f2e41" d="M 111.484375 298.976562 L 102.457031 299.621094 C 102.457031 299.621094 71.898438 316.980469 69.320312 320.847656 C 66.742188 324.714844 63.195312 330.191406 66.417969 335.988281 C 69.640625 341.789062 67.1875 412 67.1875 412 L 82.59375 408.515625 L 92.464844 335.054688 L 113.097656 332.15625 C 113.097656 332.15625 120.1875 347.449219 117.609375 360.097656 C 115.03125 372.75 113.742188 380.480469 113.742188 380.480469 L 110.515625 455.21875 L 123.089844 454.894531 L 134.371094 385.632812 L 153.714844 330.867188 L 128.570312 301.230469 Z M 111.484375 298.976562 " fill-opacity="1" fill-rule="nonzero"/><path fill="#e6e6e6" d="M 155.972656 219.726562 L 137.273438 221.660156 L 135.339844 228.101562 L 117.285156 237.765625 L 123.089844 278.359375 L 118.578125 285.445312 L 120.511719 292.53125 C 120.511719 292.53125 115.351562 293.175781 115.996094 297.042969 L 104.390625 298.976562 C 104.390625 298.976562 119.785156 302.117188 123.050781 317.621094 C 126.3125 333.125 153.394531 335.054688 153.394531 335.054688 L 174.671875 268.695312 L 176.605469 229.390625 L 161.773438 225.527344 Z M 155.972656 219.726562 " fill-opacity="1" fill-rule="nonzero"/><path fill="#ffb6b6" d="M 160.652344 202.757812 C 160.652344 203.710938 160.558594 204.65625 160.375 205.589844 C 160.1875 206.527344 159.914062 207.433594 159.546875 208.316406 C 159.183594 209.195312 158.734375 210.035156 158.203125 210.828125 C 157.671875 211.621094 157.070312 212.351562 156.394531 213.027344 C 155.722656 213.703125 154.988281 214.304688 154.191406 214.832031 C 153.398438 215.363281 152.5625 215.8125 151.679688 216.175781 C 150.796875 216.542969 149.890625 216.816406 148.953125 217.003906 C 148.019531 217.1875 147.074219 217.28125 146.117188 217.28125 C 145.164062 217.28125 144.21875 217.1875 143.28125 217.003906 C 142.347656 216.816406 141.4375 216.542969 140.554688 216.175781 C 139.671875 215.8125 138.835938 215.363281 138.042969 214.832031 C 137.25 214.304688 136.515625 213.703125 135.839844 213.027344 C 135.164062 212.351562 134.5625 211.621094 134.03125 210.828125 C 133.503906 210.035156 133.054688 209.195312 132.6875 208.316406 C 132.324219 207.433594 132.046875 206.527344 131.863281 205.589844 C 131.675781 204.65625 131.582031 203.710938 131.582031 202.757812 C 131.582031 201.804688 131.675781 200.859375 131.863281 199.921875 C 132.046875 198.988281 132.324219 198.078125 132.6875 197.199219 C 133.054688 196.316406 133.503906 195.480469 134.03125 194.6875 C 134.5625 193.894531 135.164062 193.160156 135.839844 192.484375 C 136.515625 191.8125 137.25 191.210938 138.042969 190.679688 C 138.835938 190.148438 139.671875 189.703125 140.554688 189.335938 C 141.4375 188.972656 142.347656 188.695312 143.28125 188.511719 C 144.21875 188.324219 145.164062 188.230469 146.117188 188.230469 C 147.074219 188.230469 148.019531 188.324219 148.953125 188.511719 C 149.890625 188.695312 150.796875 188.972656 151.679688 189.335938 C 152.5625 189.703125 153.398438 190.148438 154.191406 190.679688 C 154.988281 191.210938 155.722656 191.8125 156.394531 192.484375 C 157.070312 193.160156 157.671875 193.894531 158.203125 194.6875 C 158.734375 195.480469 159.183594 196.316406 159.546875 197.199219 C 159.914062 198.078125 160.1875 198.988281 160.375 199.921875 C 160.558594 200.859375 160.652344 201.804688 160.652344 202.757812 Z M 160.652344 202.757812 " fill-opacity="1" fill-rule="nonzero"/><path fill="#2f2e41" d="M 138.5625 215.859375 C 138.5625 215.859375 125.667969 215.214844 126.957031 204.90625 C 123.765625 193.929688 126.589844 186.800781 136.628906 184.289062 C 136.628906 184.289062 139.207031 183.644531 139.851562 183.644531 C 148.332031 183.644531 152.75 186.222656 152.75 186.222656 C 152.75 186.222656 152.105469 183.671875 152.75 184.304688 C 153.394531 184.933594 154.039062 186.222656 154.039062 186.222656 C 154.039062 186.222656 160.484375 189.445312 160.484375 195.886719 C 160.484375 202.332031 160.484375 199.753906 160.484375 199.753906 C 160.484375 199.753906 159.195312 199.753906 157.90625 195.886719 C 156.617188 192.023438 148.269531 194.597656 148.269531 194.597656 L 148.878906 195.886719 L 146.945312 195.242188 L 145.011719 197.175781 L 143.722656 196.53125 C 143.722656 196.53125 138.5625 196.53125 139.207031 196.53125 C 139.851562 196.53125 139.402344 200.910156 139.402344 200.910156 L 134.695312 206.195312 L 139.851562 215.859375 Z M 138.5625 215.859375 " fill-opacity="1" fill-rule="nonzero"/><path fill="#ffb6b6" d="M 69.863281 292.761719 C 66.191406 294.761719 64.25 298.277344 65.523438 300.613281 C 66.796875 302.945312 70.808594 303.214844 74.480469 301.214844 C 76.085938 300.335938 77.359375 299.171875 78.179688 297.941406 L 93.628906 289.261719 L 89.398438 282.105469 L 74.621094 291.421875 C 73.140625 291.445312 71.46875 291.882812 69.863281 292.761719 Z M 69.863281 292.761719 " fill-opacity="1" fill-rule="nonzero"/><path fill="#e6e6e6" d="M 121.957031 238.066406 C 121.957031 238.066406 115.902344 235.765625 113.816406 238.539062 C 111.730469 241.3125 97.945312 274.960938 97.945312 274.960938 L 77.722656 285.515625 L 83.410156 295.410156 L 109.449219 286.75 L 126.632812 255.351562 Z M 121.957031 238.066406 " fill-opacity="1" fill-rule="nonzero"/><path fill="#ffffff" d="M 312.914062 348.585938 L 312.914062 416.882812 C 312.914062 422.921875 308 427.835938 301.953125 427.835938 L 133.027344 427.835938 C 126.984375 427.835938 122.066406 422.921875 122.066406 416.882812 L 122.066406 348.585938 C 122.066406 342.546875 126.984375 337.632812 133.027344 337.632812 L 301.953125 337.632812 C 308 337.632812 312.914062 342.546875 312.914062 348.585938 Z M 312.914062 348.585938 " fill-opacity="1" fill-rule="nonzero"/><path fill="#3f3d56" d="M 312.914062 348.585938 L 312.914062 416.882812 C 312.914062 422.921875 308 427.835938 301.953125 427.835938 L 133.027344 427.835938 C 126.984375 427.835938 122.066406 422.921875 122.066406 416.882812 L 122.066406 348.585938 C 122.066406 342.546875 126.984375 337.632812 133.027344 337.632812 L 301.953125 337.632812 C 308 337.632812 312.914062 342.546875 312.914062 348.585938 Z M 301.953125 426.546875 C 307.296875 426.546875 311.625 422.21875 311.625 416.882812 L 311.625 382.449219 C 311.625 358.410156 292.125 338.921875 268.066406 338.921875 L 133.027344 338.921875 C 127.6875 338.921875 123.355469 343.246094 123.355469 348.585938 L 123.355469 416.882812 C 123.355469 422.21875 127.6875 426.546875 133.027344 426.546875 Z M 301.953125 426.546875 " fill-opacity="1" fill-rule="nonzero"/><path fill="#1476ff" d="M 197.898438 378.894531 L 175.832031 378.894531 C 175.277344 378.894531 174.824219 379.347656 174.824219 379.902344 C 174.824219 380.457031 175.277344 380.910156 175.832031 380.910156 L 197.898438 380.910156 C 198.453125 380.910156 198.90625 380.457031 198.90625 379.902344 C 198.90625 379.347656 198.453125 378.894531 197.898438 378.894531 Z M 197.898438 378.894531 " fill-opacity="1" fill-rule="nonzero"/><path fill="#1476ff" d="M 231.425781 378.894531 L 209.359375 378.894531 C 208.804688 378.894531 208.351562 379.347656 208.351562 379.902344 C 208.351562 380.457031 208.804688 380.910156 209.359375 380.910156 L 231.425781 380.910156 C 231.980469 380.910156 232.433594 380.457031 232.433594 379.902344 C 232.433594 379.347656 231.980469 378.894531 231.425781 378.894531 Z M 231.425781 378.894531 " fill-opacity="1" fill-rule="nonzero"/><path fill="#1476ff" d="M 197.898438 389.914062 L 175.832031 389.914062 C 175.277344 389.914062 174.824219 390.367188 174.824219 390.921875 C 174.824219 391.480469 175.277344 391.933594 175.832031 391.933594 L 197.898438 391.933594 C 198.453125 391.933594 198.90625 391.480469 198.90625 390.921875 C 198.90625 390.367188 198.453125 389.914062 197.898438 389.914062 Z M 197.898438 389.914062 " fill-opacity="1" fill-rule="nonzero"/><path fill="#1476ff" d="M 231.425781 389.914062 L 209.359375 389.914062 C 208.804688 389.914062 208.351562 390.367188 208.351562 390.921875 C 208.351562 391.480469 208.804688 391.933594 209.359375 391.933594 L 231.425781 391.933594 C 231.980469 391.933594 232.433594 391.480469 232.433594 390.921875 C 232.433594 390.367188 231.980469 389.914062 231.425781 389.914062 Z M 231.425781 389.914062 " fill-opacity="1" fill-rule="nonzero"/><path fill="#1476ff" d="M 265.960938 390.921875 C 265.960938 390.367188 265.507812 389.914062 264.953125 389.914062 L 242.886719 389.914062 C 242.332031 389.914062 241.878906 390.367188 241.878906 390.921875 C 241.878906 391.480469 242.332031 391.933594 242.886719 391.933594 L 264.953125 391.933594 C 265.507812 391.933594 265.960938 391.480469 265.960938 390.921875 Z M 265.960938 390.921875 " fill-opacity="1" fill-rule="nonzero"/><path fill="#1476ff" d="M 185.003906 370.09375 C 185.558594 370.09375 186.011719 369.640625 186.011719 369.085938 C 186.011719 368.53125 185.558594 368.078125 185.003906 368.078125 L 162.9375 368.078125 C 162.382812 368.078125 161.929688 368.53125 161.929688 369.085938 C 161.929688 369.640625 162.382812 370.09375 162.9375 370.09375 Z M 185.003906 370.09375 " fill-opacity="1" fill-rule="nonzero"/><path fill="#1476ff" d="M 249.980469 369.683594 L 272.042969 369.683594 C 272.601562 369.683594 273.054688 369.230469 273.054688 368.675781 C 273.054688 368.121094 272.601562 367.667969 272.042969 367.667969 L 249.980469 367.667969 C 249.425781 367.667969 248.972656 368.121094 248.972656 368.675781 C 248.972656 369.230469 249.425781 369.683594 249.980469 369.683594 Z M 249.980469 369.683594 " fill-opacity="1" fill-rule="nonzero"/><path fill="#1476ff" d="M 194.296875 369.894531 L 240.039062 369.894531 C 240.597656 369.894531 241.050781 369.445312 241.050781 368.886719 C 241.050781 368.332031 240.597656 367.878906 240.039062 367.878906 L 194.296875 367.878906 C 193.742188 367.878906 193.289062 368.332031 193.289062 368.886719 C 193.289062 369.445312 193.742188 369.894531 194.296875 369.894531 Z M 194.296875 369.894531 " fill-opacity="1" fill-rule="nonzero"/><path fill="#1476ff" d="M 212.296875 399.929688 L 190.230469 399.929688 C 189.675781 399.929688 189.222656 400.382812 189.222656 400.9375 C 189.222656 401.492188 189.675781 401.945312 190.230469 401.945312 L 212.296875 401.945312 C 212.851562 401.945312 213.304688 401.492188 213.304688 400.9375 C 213.304688 400.382812 212.851562 399.929688 212.296875 399.929688 Z M 212.296875 399.929688 " fill-opacity="1" fill-rule="nonzero"/><path fill="#ffffff" d="M 283.554688 348.070312 L 283.554688 416.367188 C 283.554688 422.40625 278.636719 427.320312 272.59375 427.320312 L 204.25 427.320312 C 198.207031 427.320312 193.289062 422.40625 193.289062 416.367188 L 193.289062 348.070312 C 193.289062 342.03125 198.207031 337.117188 204.25 337.117188 L 272.59375 337.117188 C 278.636719 337.117188 283.554688 342.03125 283.554688 348.070312 Z M 283.554688 348.070312 " fill-opacity="1" fill-rule="nonzero"/><path fill="#3f3d56" d="M 283.554688 348.070312 L 283.554688 416.367188 C 283.554688 422.40625 278.636719 427.320312 272.59375 427.320312 L 204.25 427.320312 C 198.207031 427.320312 193.289062 422.40625 193.289062 416.367188 L 193.289062 348.070312 C 193.289062 342.03125 198.207031 337.117188 204.25 337.117188 L 272.59375 337.117188 C 278.636719 337.117188 283.554688 342.03125 283.554688 348.070312 Z M 268.355469 426.03125 C 276.035156 426.03125 282.265625 419.808594 282.265625 412.128906 L 282.265625 381.933594 C 282.265625 357.894531 262.761719 338.40625 238.707031 338.40625 L 204.25 338.40625 C 198.90625 338.40625 194.578125 342.734375 194.578125 348.070312 L 194.578125 406.835938 C 194.578125 417.4375 203.175781 426.03125 213.785156 426.03125 Z M 268.355469 426.03125 " fill-opacity="1" fill-rule="nonzero"/><path fill="#1476ff" d="M 247.519531 365.011719 L 225.457031 365.011719 C 224.898438 365.011719 224.445312 364.558594 224.445312 364.003906 C 224.445312 363.445312 224.898438 362.996094 225.457031 362.996094 L 247.519531 362.996094 C 248.074219 362.996094 248.527344 363.445312 248.527344 364.003906 C 248.527344 364.558594 248.074219 365.011719 247.519531 365.011719 Z M 247.519531 365.011719 " fill-opacity="1" fill-rule="nonzero"/><path fill="#1476ff" d="M 247.519531 386.507812 L 225.457031 386.507812 C 224.898438 386.507812 224.445312 386.054688 224.445312 385.5 C 224.445312 384.941406 224.898438 384.492188 225.457031 384.492188 L 247.519531 384.492188 C 248.074219 384.492188 248.527344 384.941406 248.527344 385.5 C 248.527344 386.054688 248.074219 386.507812 247.519531 386.507812 Z M 247.519531 386.507812 " fill-opacity="1" fill-rule="nonzero"/><path fill="#1476ff" d="M 236.558594 416.144531 L 214.496094 416.144531 C 213.9375 416.144531 213.484375 415.691406 213.484375 415.136719 C 213.484375 414.582031 213.9375 414.128906 214.496094 414.128906 L 236.558594 414.128906 C 237.113281 414.128906 237.566406 414.582031 237.566406 415.136719 C 237.566406 415.691406 237.113281 416.144531 236.558594 416.144531 Z M 236.558594 416.144531 " fill-opacity="1" fill-rule="nonzero"/><path fill="#1476ff" d="M 259.359375 375.765625 L 213.617188 375.765625 C 213.058594 375.765625 212.605469 375.3125 212.605469 374.757812 C 212.605469 374.203125 213.058594 373.75 213.617188 373.75 L 259.359375 373.75 C 259.914062 373.75 260.367188 374.203125 260.367188 374.757812 C 260.367188 375.3125 259.914062 375.765625 259.359375 375.765625 Z M 259.359375 375.765625 " fill-opacity="1" fill-rule="nonzero"/><path fill="#1476ff" d="M 270.695312 310.226562 C 270.695312 288.921875 252.675781 277.199219 232.089844 271.648438 C 205.699219 264.53125 186.371094 278.933594 193.488281 310.226562 C 195.101562 317.316406 198.957031 325.601562 203.730469 332.6875 L 241.613281 332.6875 C 254.265625 324.453125 270.695312 326.761719 270.695312 310.226562 Z M 270.695312 310.226562 " fill-opacity="1" fill-rule="nonzero"/><path fill="#1476ff" d="M 231.523438 350.5 C 233.679688 346.394531 236.410156 343.433594 239.421875 341.179688 L 203.941406 341.179688 C 213.074219 354.214844 225.183594 362.582031 231.523438 350.5 Z M 231.523438 350.5 " fill-opacity="1" fill-rule="nonzero"/><path fill="#ffffff" d="M 227.429688 287.417969 C 229.707031 287.417969 231.554688 289.261719 231.554688 291.539062 L 231.554688 299.78125 L 223.304688 299.78125 L 223.304688 291.539062 C 223.304688 289.261719 225.152344 287.417969 227.429688 287.417969 Z M 233.617188 299.78125 L 233.617188 291.539062 C 233.617188 288.125 230.847656 285.359375 227.429688 285.359375 C 224.011719 285.359375 221.242188 288.125 221.242188 291.539062 L 221.242188 299.78125 C 218.964844 299.78125 217.121094 301.628906 217.121094 303.902344 L 217.121094 314.207031 C 217.121094 316.484375 218.964844 318.328125 221.242188 318.328125 L 233.617188 318.328125 C 235.894531 318.328125 237.742188 316.484375 237.742188 314.207031 L 237.742188 303.902344 C 237.742188 301.628906 235.894531 299.78125 233.617188 299.78125 Z M 221.242188 301.84375 L 233.617188 301.84375 C 234.753906 301.84375 235.679688 302.765625 235.679688 303.902344 L 235.679688 314.207031 C 235.679688 315.347656 234.753906 316.269531 233.617188 316.269531 L 221.242188 316.269531 C 220.105469 316.269531 219.179688 315.347656 219.179688 314.207031 L 219.179688 303.902344 C 219.179688 302.765625 220.105469 301.84375 221.242188 301.84375 Z M 221.242188 301.84375 " fill-opacity="1" fill-rule="nonzero"/><path fill="#ffb6b6" d="M 168.492188 335.40625 C 167.992188 339.554688 169.730469 343.175781 172.375 343.492188 C 175.015625 343.808594 177.5625 340.699219 178.058594 336.550781 C 178.277344 334.734375 178.066406 333.019531 177.539062 331.640625 L 179.425781 314.03125 L 171.136719 313.324219 L 170.15625 330.757812 C 169.320312 331.972656 168.707031 333.589844 168.492188 335.40625 Z M 168.492188 335.40625 " fill-opacity="1" fill-rule="nonzero"/><path fill="#e6e6e6" d="M 170.480469 230.359375 C 170.480469 230.359375 179.503906 227.78125 181.441406 231.644531 C 183.375 235.511719 187.886719 286.410156 187.886719 286.410156 L 179.183594 327.039062 L 169.191406 324.425781 L 174.347656 283.191406 L 167.253906 252.265625 Z M 170.480469 230.359375 " fill-opacity="1" fill-rule="nonzero"/><path fill="#1476ff" d="M 75.546875 316.269531 C 75.546875 317.503906 75.488281 318.734375 75.367188 319.964844 C 75.246094 321.191406 75.066406 322.410156 74.824219 323.621094 C 74.582031 324.832031 74.28125 326.027344 73.925781 327.210938 C 73.566406 328.390625 73.148438 329.550781 72.675781 330.691406 C 72.203125 331.832031 71.675781 332.949219 71.09375 334.035156 C 70.511719 335.125 69.878906 336.183594 69.191406 337.207031 C 68.503906 338.234375 67.769531 339.226562 66.988281 340.179688 C 66.203125 341.132812 65.375 342.046875 64.5 342.921875 C 63.628906 343.792969 62.714844 344.621094 61.757812 345.40625 C 60.804688 346.1875 59.8125 346.921875 58.785156 347.609375 C 57.757812 348.292969 56.699219 348.929688 55.609375 349.507812 C 54.519531 350.089844 53.40625 350.617188 52.265625 351.089844 C 51.125 351.5625 49.960938 351.980469 48.78125 352.335938 C 47.597656 352.695312 46.402344 352.996094 45.1875 353.234375 C 43.976562 353.476562 42.757812 353.65625 41.527344 353.777344 C 40.296875 353.898438 39.066406 353.960938 37.832031 353.960938 C 36.59375 353.960938 35.363281 353.898438 34.132812 353.777344 C 32.902344 353.65625 31.683594 353.476562 30.472656 353.234375 C 29.261719 352.996094 28.0625 352.695312 26.882812 352.335938 C 25.699219 351.980469 24.539062 351.5625 23.394531 351.089844 C 22.253906 350.617188 21.140625 350.089844 20.050781 349.507812 C 18.960938 348.929688 17.902344 348.292969 16.875 347.609375 C 15.847656 346.921875 14.855469 346.1875 13.902344 345.40625 C 12.949219 344.621094 12.03125 343.792969 11.160156 342.921875 C 10.285156 342.046875 9.457031 341.132812 8.675781 340.179688 C 7.890625 339.226562 7.15625 338.234375 6.46875 337.207031 C 5.78125 336.183594 5.148438 335.125 4.566406 334.035156 C 3.984375 332.949219 3.457031 331.832031 2.984375 330.691406 C 2.511719 329.550781 2.09375 328.390625 1.738281 327.210938 C 1.378906 326.027344 1.078125 324.832031 0.835938 323.621094 C 0.597656 322.410156 0.414062 321.191406 0.292969 319.964844 C 0.171875 318.734375 0.113281 317.503906 0.113281 316.269531 C 0.113281 315.035156 0.171875 313.804688 0.292969 312.574219 C 0.414062 311.347656 0.597656 310.125 0.835938 308.914062 C 1.078125 307.703125 1.378906 306.507812 1.738281 305.328125 C 2.09375 304.144531 2.511719 302.984375 2.984375 301.84375 C 3.457031 300.703125 3.984375 299.589844 4.566406 298.5 C 5.148438 297.414062 5.78125 296.355469 6.46875 295.328125 C 7.15625 294.300781 7.890625 293.3125 8.675781 292.359375 C 9.457031 291.402344 10.285156 290.488281 11.160156 289.617188 C 12.03125 288.742188 12.949219 287.914062 13.902344 287.132812 C 14.855469 286.351562 15.847656 285.613281 16.875 284.929688 C 17.902344 284.242188 18.960938 283.609375 20.050781 283.027344 C 21.140625 282.445312 22.253906 281.917969 23.394531 281.445312 C 24.539062 280.972656 25.699219 280.558594 26.882812 280.199219 C 28.0625 279.84375 29.261719 279.542969 30.472656 279.300781 C 31.683594 279.0625 32.902344 278.878906 34.132812 278.757812 C 35.363281 278.636719 36.59375 278.578125 37.832031 278.578125 C 39.066406 278.578125 40.296875 278.636719 41.527344 278.757812 C 42.757812 278.878906 43.976562 279.0625 45.1875 279.300781 C 46.402344 279.542969 47.597656 279.84375 48.78125 280.199219 C 49.960938 280.558594 51.125 280.972656 52.265625 281.445312 C 53.40625 281.917969 54.519531 282.445312 55.609375 283.027344 C 56.699219 283.609375 57.757812 284.242188 58.785156 284.929688 C 59.8125 285.613281 60.804688 286.351562 61.757812 287.132812 C 62.714844 287.914062 63.628906 288.742188 64.5 289.617188 C 65.375 290.488281 66.203125 291.402344 66.988281 292.359375 C 67.769531 293.3125 68.503906 294.300781 69.191406 295.328125 C 69.878906 296.355469 70.511719 297.414062 71.09375 298.5 C 71.675781 299.589844 72.203125 300.703125 72.675781 301.84375 C 73.148438 302.984375 73.566406 304.144531 73.925781 305.328125 C 74.28125 306.507812 74.582031 307.703125 74.824219 308.914062 C 75.066406 310.125 75.246094 311.347656 75.367188 312.574219 C 75.488281 313.804688 75.546875 315.035156 75.546875 316.269531 Z M 75.546875 316.269531 " fill-opacity="1" fill-rule="nonzero"/><path fill="#ffffff" d="M 37.832031 299.394531 C 40.496094 299.394531 42.65625 301.554688 42.65625 304.214844 L 42.65625 313.859375 L 33.007812 313.859375 L 33.007812 304.214844 C 33.007812 301.554688 35.167969 299.394531 37.832031 299.394531 Z M 45.066406 313.859375 L 45.066406 304.214844 C 45.066406 300.222656 41.828125 296.984375 37.832031 296.984375 C 33.832031 296.984375 30.59375 300.222656 30.59375 304.214844 L 30.59375 313.859375 C 27.929688 313.859375 25.769531 316.015625 25.769531 318.679688 L 25.769531 330.730469 C 25.769531 333.394531 27.929688 335.550781 30.59375 335.550781 L 45.066406 335.550781 C 47.730469 335.550781 49.890625 333.394531 49.890625 330.730469 L 49.890625 318.679688 C 49.890625 316.015625 47.730469 313.859375 45.066406 313.859375 Z M 30.59375 316.269531 L 45.066406 316.269531 C 46.398438 316.269531 47.480469 317.347656 47.480469 318.679688 L 47.480469 330.730469 C 47.480469 332.0625 46.398438 333.140625 45.066406 333.140625 L 30.59375 333.140625 C 29.261719 333.140625 28.179688 332.0625 28.179688 330.730469 L 28.179688 318.679688 C 28.179688 317.347656 29.261719 316.269531 30.59375 316.269531 Z M 30.59375 316.269531 " fill-opacity="1" fill-rule="nonzero"/><g clip-path="url(#id9)"><path fill="#9240fb" d="M 17.144531 270.886719 L 64.441406 270.886719 C 73.90625 270.886719 81.582031 278.601562 81.582031 288.121094 L 81.582031 342.722656 C 81.582031 352.238281 73.90625 359.953125 64.441406 359.953125 L 17.144531 359.953125 C 7.675781 359.953125 0 352.238281 0 342.722656 L 0 288.121094 C 0 278.601562 7.675781 270.886719 17.144531 270.886719 " fill-opacity="1" fill-rule="nonzero"/></g><path fill="#ffffff" d="M 36.542969 276 C 24.984375 276 15.679688 285.25 15.679688 296.738281 L 15.679688 319.785156 L 21.472656 319.785156 L 21.472656 296.738281 C 21.472656 288.441406 28.195312 281.761719 36.542969 281.761719 C 44.890625 281.761719 51.609375 288.441406 51.609375 296.738281 L 51.609375 319.785156 L 57.40625 319.785156 L 57.40625 296.738281 C 57.40625 285.25 48.101562 276 36.542969 276 Z M 36.542969 276 " fill-opacity="1" fill-rule="evenodd"/><g clip-path="url(#id10)"><path fill="#ffffff" d="M 12.183594 307.6875 L 60.902344 307.6875 C 60.980469 307.6875 61.050781 307.71875 61.105469 307.773438 C 61.160156 307.828125 61.191406 307.894531 61.191406 307.976562 L 61.191406 345.332031 C 61.191406 345.410156 61.160156 345.476562 61.105469 345.535156 C 61.050781 345.589844 60.980469 345.617188 60.902344 345.617188 L 12.183594 345.617188 C 12.101562 345.617188 12.035156 345.589844 11.980469 345.535156 C 11.921875 345.476562 11.894531 345.410156 11.894531 345.332031 L 11.894531 307.976562 C 11.894531 307.894531 11.921875 307.828125 11.980469 307.773438 C 12.035156 307.71875 12.101562 307.6875 12.183594 307.6875 " fill-opacity="1" fill-rule="evenodd"/></g><g clip-path="url(#id11)"><path fill="#ffb016" d="M 256.671875 349.058594 L 320.410156 349.058594 C 329.882812 349.058594 337.566406 356.785156 337.566406 366.320312 L 337.566406 417.871094 C 337.566406 427.402344 329.882812 435.132812 320.410156 435.132812 L 256.671875 435.132812 C 247.199219 435.132812 239.515625 427.402344 239.515625 417.871094 L 239.515625 366.320312 C 239.515625 356.785156 247.199219 349.058594 256.671875 349.058594 " fill-opacity="1" fill-rule="nonzero"/></g><g clip-path="url(#id12)"><path fill="#ffffff" d="M 255.105469 429.195312 L 325.601562 429.195312 C 325.824219 429.195312 326.035156 429.152344 326.238281 429.066406 C 326.441406 428.984375 326.621094 428.863281 326.777344 428.707031 C 326.933594 428.550781 327.050781 428.371094 327.136719 428.167969 C 327.21875 427.964844 327.261719 427.753906 327.261719 427.535156 L 327.261719 365.332031 C 327.261719 365.109375 327.21875 364.898438 327.136719 364.695312 C 327.050781 364.492188 326.933594 364.3125 326.777344 364.15625 C 326.621094 364.003906 326.441406 363.882812 326.238281 363.796875 C 326.035156 363.714844 325.824219 363.671875 325.601562 363.671875 L 310.292969 363.671875 C 310.070312 363.671875 309.859375 363.714844 309.65625 363.796875 C 309.453125 363.882812 309.273438 364.003906 309.117188 364.15625 C 308.960938 364.3125 308.84375 364.492188 308.757812 364.695312 C 308.675781 364.898438 308.632812 365.109375 308.632812 365.332031 L 308.632812 425.875 L 303.496094 425.875 L 303.496094 382.398438 C 303.496094 382.175781 303.457031 381.964844 303.371094 381.761719 C 303.289062 381.558594 303.167969 381.378906 303.011719 381.222656 C 302.855469 381.066406 302.675781 380.949219 302.472656 380.863281 C 302.269531 380.777344 302.058594 380.738281 301.839844 380.738281 L 286.527344 380.738281 C 286.308594 380.738281 286.09375 380.78125 285.890625 380.863281 C 285.6875 380.949219 285.507812 381.066406 285.355469 381.222656 C 285.199219 381.378906 285.078125 381.558594 284.992188 381.761719 C 284.910156 381.964844 284.867188 382.175781 284.867188 382.398438 L 284.867188 425.875 L 279.734375 425.875 L 279.734375 391.808594 C 279.734375 391.585938 279.691406 391.375 279.605469 391.171875 C 279.523438 390.96875 279.402344 390.789062 279.246094 390.632812 C 279.089844 390.476562 278.910156 390.359375 278.707031 390.273438 C 278.503906 390.191406 278.292969 390.148438 278.074219 390.148438 L 262.761719 390.148438 C 262.542969 390.148438 262.332031 390.191406 262.128906 390.273438 C 261.925781 390.359375 261.746094 390.476562 261.589844 390.632812 C 261.433594 390.789062 261.3125 390.96875 261.230469 391.171875 C 261.144531 391.375 261.101562 391.585938 261.101562 391.808594 L 261.101562 425.875 L 256.765625 425.875 L 256.765625 356.082031 C 256.765625 355.859375 256.726562 355.648438 256.640625 355.445312 C 256.554688 355.242188 256.4375 355.0625 256.28125 354.90625 C 256.125 354.75 255.945312 354.632812 255.742188 354.546875 C 255.539062 354.464844 255.328125 354.421875 255.105469 354.421875 C 254.886719 354.421875 254.675781 354.464844 254.472656 354.546875 C 254.269531 354.632812 254.089844 354.75 253.933594 354.90625 C 253.777344 355.0625 253.65625 355.242188 253.574219 355.445312 C 253.488281 355.648438 253.449219 355.859375 253.449219 356.082031 L 253.449219 427.535156 C 253.449219 427.753906 253.488281 427.964844 253.574219 428.167969 C 253.660156 428.371094 253.777344 428.550781 253.933594 428.707031 C 254.089844 428.863281 254.269531 428.984375 254.472656 429.066406 C 254.675781 429.152344 254.886719 429.195312 255.105469 429.195312 Z M 255.105469 429.195312 " fill-opacity="1" fill-rule="nonzero"/></g><g clip-path="url(#id13)"><path fill="#1476ff" d="M 202.167969 240.703125 L 210.457031 240.703125 L 210.457031 260.675781 L 202.167969 260.675781 Z M 202.167969 240.703125 " fill-opacity="1" fill-rule="nonzero"/></g><g clip-path="url(#id14)"><path fill="#1476ff" d="M 223.199219 226.023438 L 231.492188 226.023438 L 231.492188 260.675781 L 223.199219 260.675781 Z M 223.199219 226.023438 " fill-opacity="1" fill-rule="nonzero"/></g><g clip-path="url(#id15)"><path fill="#1476ff" d="M 244.234375 234.710938 L 252.523438 234.710938 L 252.523438 260.675781 L 244.234375 260.675781 Z M 244.234375 234.710938 " fill-opacity="1" fill-rule="nonzero"/></g><g clip-path="url(#id16)"><path fill="#1476ff" d="M 265.269531 213.441406 L 273.558594 213.441406 L 273.558594 260.675781 L 265.269531 260.675781 Z M 265.269531 213.441406 " fill-opacity="1" fill-rule="nonzero"/></g><g clip-path="url(#id17)"><path fill="#1476ff" d="M 286.300781 223.628906 L 294.589844 223.628906 L 294.589844 260.675781 L 286.300781 260.675781 Z M 286.300781 223.628906 " fill-opacity="1" fill-rule="nonzero"/></g><g clip-path="url(#id18)"><path fill="#1476ff" d="M 307.335938 200.859375 L 315.625 200.859375 L 315.625 260.675781 L 307.335938 260.675781 Z M 307.335938 200.859375 " fill-opacity="1" fill-rule="nonzero"/></g><g clip-path="url(#id19)"><path fill="#1476ff" d="M 328.367188 184.082031 L 336.660156 184.082031 L 336.660156 260.675781 L 328.367188 260.675781 Z M 328.367188 184.082031 " fill-opacity="1" fill-rule="nonzero"/></g><path fill="#9240fb" d="M 209.605469 225.378906 C 209.820312 225.59375 210.015625 225.832031 210.183594 226.085938 C 210.355469 226.339844 210.496094 226.605469 210.613281 226.890625 C 210.730469 227.171875 210.820312 227.460938 210.878906 227.761719 C 210.9375 228.0625 210.96875 228.363281 210.96875 228.671875 C 210.96875 228.976562 210.9375 229.28125 210.878906 229.578125 C 210.820312 229.878906 210.730469 230.171875 210.613281 230.453125 C 210.496094 230.734375 210.355469 231.003906 210.183594 231.257812 C 210.015625 231.511719 209.820312 231.746094 209.605469 231.964844 C 209.386719 232.179688 209.152344 232.371094 208.898438 232.542969 C 208.644531 232.710938 208.375 232.855469 208.09375 232.972656 C 207.8125 233.089844 207.519531 233.175781 207.21875 233.238281 C 206.921875 233.296875 206.617188 233.328125 206.3125 233.328125 C 206.007812 233.328125 205.703125 233.296875 205.402344 233.238281 C 205.105469 233.175781 204.8125 233.089844 204.53125 232.972656 C 204.246094 232.855469 203.980469 232.710938 203.726562 232.542969 C 203.46875 232.371094 203.234375 232.179688 203.019531 231.964844 C 202.804688 231.746094 202.609375 231.511719 202.441406 231.257812 C 202.269531 231.003906 202.125 230.734375 202.007812 230.453125 C 201.894531 230.171875 201.804688 229.878906 201.746094 229.578125 C 201.683594 229.28125 201.65625 228.976562 201.65625 228.671875 C 201.65625 228.367188 201.683594 228.0625 201.746094 227.761719 C 201.804688 227.464844 201.894531 227.171875 202.007812 226.890625 C 202.125 226.605469 202.269531 226.339844 202.441406 226.085938 C 202.609375 225.832031 202.804688 225.59375 203.019531 225.378906 C 203.234375 225.164062 203.46875 224.96875 203.726562 224.800781 C 203.980469 224.628906 204.246094 224.488281 204.53125 224.371094 C 204.8125 224.253906 205.101562 224.164062 205.402344 224.105469 C 205.703125 224.046875 206.007812 224.015625 206.3125 224.015625 C 206.617188 224.015625 206.921875 224.046875 207.21875 224.105469 C 207.519531 224.164062 207.8125 224.253906 208.09375 224.371094 C 208.375 224.488281 208.644531 224.628906 208.898438 224.800781 C 209.152344 224.96875 209.386719 225.164062 209.605469 225.378906 Z M 209.605469 225.378906 " fill-opacity="1" fill-rule="nonzero"/><path fill="#9240fb" d="M 230.636719 210.613281 C 230.855469 210.828125 231.046875 211.0625 231.21875 211.316406 C 231.386719 211.570312 231.53125 211.839844 231.648438 212.121094 C 231.765625 212.40625 231.851562 212.695312 231.914062 212.996094 C 231.972656 213.296875 232.003906 213.597656 232.003906 213.902344 C 232.003906 214.210938 231.972656 214.511719 231.914062 214.8125 C 231.851562 215.113281 231.765625 215.402344 231.648438 215.6875 C 231.53125 215.96875 231.386719 216.238281 231.21875 216.492188 C 231.046875 216.746094 230.855469 216.980469 230.636719 217.195312 C 230.421875 217.414062 230.1875 217.605469 229.933594 217.773438 C 229.679688 217.945312 229.410156 218.089844 229.128906 218.207031 C 228.84375 218.324219 228.554688 218.410156 228.253906 218.46875 C 227.953125 218.53125 227.652344 218.558594 227.34375 218.558594 C 227.039062 218.558594 226.738281 218.53125 226.4375 218.46875 C 226.136719 218.410156 225.847656 218.324219 225.5625 218.207031 C 225.28125 218.089844 225.011719 217.945312 224.757812 217.777344 C 224.503906 217.605469 224.269531 217.414062 224.054688 217.195312 C 223.835938 216.980469 223.644531 216.746094 223.472656 216.492188 C 223.304688 216.238281 223.160156 215.96875 223.042969 215.6875 C 222.925781 215.402344 222.839844 215.113281 222.777344 214.8125 C 222.71875 214.511719 222.6875 214.210938 222.6875 213.90625 C 222.6875 213.597656 222.71875 213.296875 222.777344 212.996094 C 222.839844 212.695312 222.925781 212.40625 223.042969 212.121094 C 223.160156 211.839844 223.304688 211.570312 223.472656 211.316406 C 223.644531 211.0625 223.835938 210.828125 224.050781 210.613281 C 224.269531 210.394531 224.503906 210.203125 224.757812 210.035156 C 225.011719 209.863281 225.28125 209.71875 225.5625 209.601562 C 225.847656 209.484375 226.136719 209.398438 226.4375 209.339844 C 226.738281 209.277344 227.039062 209.25 227.34375 209.25 C 227.652344 209.25 227.953125 209.277344 228.253906 209.339844 C 228.554688 209.398438 228.84375 209.484375 229.128906 209.601562 C 229.410156 209.71875 229.679688 209.863281 229.933594 210.03125 C 230.1875 210.203125 230.421875 210.394531 230.636719 210.613281 Z M 230.636719 210.613281 " fill-opacity="1" fill-rule="nonzero"/><path fill="#9240fb" d="M 251.671875 219 C 251.886719 219.214844 252.082031 219.453125 252.25 219.707031 C 252.421875 219.960938 252.5625 220.226562 252.679688 220.511719 C 252.796875 220.792969 252.886719 221.085938 252.945312 221.382812 C 253.003906 221.683594 253.035156 221.988281 253.035156 222.292969 C 253.035156 222.597656 253.003906 222.902344 252.945312 223.199219 C 252.886719 223.5 252.796875 223.792969 252.679688 224.074219 C 252.5625 224.355469 252.421875 224.625 252.25 224.878906 C 252.082031 225.132812 251.886719 225.367188 251.671875 225.585938 C 251.457031 225.800781 251.21875 225.992188 250.964844 226.164062 C 250.710938 226.332031 250.441406 226.476562 250.160156 226.59375 C 249.878906 226.710938 249.585938 226.800781 249.289062 226.859375 C 248.988281 226.917969 248.683594 226.949219 248.378906 226.949219 C 248.074219 226.949219 247.769531 226.917969 247.46875 226.859375 C 247.171875 226.800781 246.878906 226.710938 246.597656 226.59375 C 246.3125 226.476562 246.046875 226.332031 245.792969 226.164062 C 245.539062 225.992188 245.300781 225.800781 245.085938 225.585938 C 244.871094 225.367188 244.675781 225.132812 244.507812 224.878906 C 244.335938 224.625 244.195312 224.355469 244.078125 224.074219 C 243.960938 223.792969 243.871094 223.5 243.8125 223.199219 C 243.75 222.902344 243.722656 222.597656 243.722656 222.292969 C 243.722656 221.988281 243.75 221.683594 243.8125 221.382812 C 243.871094 221.085938 243.960938 220.792969 244.078125 220.511719 C 244.195312 220.226562 244.335938 219.960938 244.507812 219.707031 C 244.675781 219.453125 244.871094 219.214844 245.085938 219 C 245.300781 218.785156 245.539062 218.589844 245.792969 218.421875 C 246.046875 218.25 246.3125 218.109375 246.597656 217.992188 C 246.878906 217.875 247.171875 217.785156 247.46875 217.726562 C 247.769531 217.667969 248.074219 217.636719 248.378906 217.636719 C 248.683594 217.636719 248.988281 217.667969 249.285156 217.726562 C 249.585938 217.785156 249.878906 217.875 250.160156 217.992188 C 250.441406 218.109375 250.710938 218.25 250.964844 218.421875 C 251.21875 218.589844 251.457031 218.785156 251.671875 219 Z M 251.671875 219 " fill-opacity="1" fill-rule="nonzero"/><path fill="#9240fb" d="M 272.707031 198.03125 C 272.921875 198.246094 273.113281 198.480469 273.285156 198.734375 C 273.453125 198.988281 273.597656 199.257812 273.714844 199.539062 C 273.832031 199.824219 273.921875 200.113281 273.980469 200.414062 C 274.039062 200.714844 274.070312 201.015625 274.070312 201.320312 C 274.070312 201.628906 274.039062 201.929688 273.980469 202.230469 C 273.921875 202.53125 273.832031 202.820312 273.714844 203.105469 C 273.597656 203.386719 273.453125 203.65625 273.285156 203.910156 C 273.113281 204.164062 272.921875 204.398438 272.707031 204.613281 C 272.488281 204.832031 272.253906 205.023438 272 205.191406 C 271.746094 205.363281 271.476562 205.507812 271.195312 205.625 C 270.914062 205.742188 270.621094 205.828125 270.320312 205.886719 C 270.019531 205.949219 269.71875 205.976562 269.414062 205.976562 C 269.105469 205.976562 268.804688 205.949219 268.503906 205.886719 C 268.203125 205.828125 267.914062 205.742188 267.628906 205.625 C 267.347656 205.507812 267.078125 205.363281 266.824219 205.191406 C 266.570312 205.023438 266.335938 204.832031 266.121094 204.613281 C 265.902344 204.398438 265.710938 204.164062 265.539062 203.910156 C 265.371094 203.65625 265.226562 203.386719 265.109375 203.105469 C 264.992188 202.820312 264.90625 202.53125 264.84375 202.230469 C 264.785156 201.929688 264.753906 201.628906 264.753906 201.320312 C 264.753906 201.015625 264.785156 200.714844 264.84375 200.414062 C 264.90625 200.113281 264.992188 199.824219 265.109375 199.539062 C 265.226562 199.257812 265.371094 198.988281 265.539062 198.734375 C 265.710938 198.480469 265.902344 198.246094 266.121094 198.03125 C 266.335938 197.8125 266.570312 197.621094 266.824219 197.449219 C 267.078125 197.28125 267.347656 197.136719 267.628906 197.019531 C 267.914062 196.902344 268.203125 196.816406 268.503906 196.757812 C 268.804688 196.695312 269.105469 196.667969 269.414062 196.667969 C 269.71875 196.667969 270.019531 196.695312 270.320312 196.753906 C 270.621094 196.816406 270.910156 196.902344 271.195312 197.019531 C 271.476562 197.136719 271.746094 197.28125 272 197.449219 C 272.253906 197.621094 272.488281 197.8125 272.707031 198.03125 Z M 272.707031 198.03125 " fill-opacity="1" fill-rule="nonzero"/><path fill="#9240fb" d="M 291.523438 206.984375 C 291.820312 207.054688 292.105469 207.152344 292.386719 207.28125 C 292.664062 207.40625 292.925781 207.558594 293.175781 207.738281 C 293.421875 207.917969 293.652344 208.117188 293.859375 208.34375 C 294.066406 208.566406 294.25 208.808594 294.414062 209.066406 C 294.574219 209.328125 294.707031 209.601562 294.8125 209.886719 C 294.921875 210.175781 295 210.46875 295.046875 210.769531 C 295.097656 211.070312 295.117188 211.375 295.105469 211.679688 C 295.09375 211.984375 295.054688 212.289062 294.984375 212.585938 C 294.914062 212.882812 294.816406 213.171875 294.6875 213.449219 C 294.5625 213.726562 294.40625 213.988281 294.230469 214.238281 C 294.050781 214.484375 293.847656 214.714844 293.625 214.921875 C 293.402344 215.128906 293.160156 215.316406 292.898438 215.476562 C 292.640625 215.636719 292.367188 215.769531 292.078125 215.878906 C 291.792969 215.984375 291.5 216.0625 291.195312 216.109375 C 290.894531 216.160156 290.589844 216.179688 290.285156 216.167969 C 289.980469 216.15625 289.679688 216.117188 289.382812 216.046875 C 289.082031 215.976562 288.796875 215.878906 288.515625 215.75 C 288.238281 215.625 287.976562 215.472656 287.726562 215.292969 C 287.480469 215.113281 287.253906 214.910156 287.042969 214.6875 C 286.835938 214.464844 286.652344 214.222656 286.488281 213.960938 C 286.328125 213.703125 286.195312 213.429688 286.089844 213.144531 C 285.980469 212.855469 285.902344 212.5625 285.855469 212.261719 C 285.804688 211.960938 285.785156 211.65625 285.796875 211.351562 C 285.808594 211.042969 285.847656 210.742188 285.917969 210.445312 C 285.988281 210.148438 286.089844 209.859375 286.214844 209.582031 C 286.34375 209.304688 286.496094 209.039062 286.671875 208.792969 C 286.851562 208.542969 287.054688 208.316406 287.277344 208.109375 C 287.5 207.898438 287.742188 207.714844 288.003906 207.554688 C 288.261719 207.394531 288.535156 207.261719 288.824219 207.152344 C 289.109375 207.046875 289.402344 206.96875 289.707031 206.917969 C 290.007812 206.871094 290.3125 206.851562 290.617188 206.863281 C 290.921875 206.875 291.222656 206.914062 291.523438 206.984375 Z M 291.523438 206.984375 " fill-opacity="1" fill-rule="nonzero"/><path fill="#9240fb" d="M 312.226562 184.140625 C 312.527344 184.191406 312.824219 184.269531 313.109375 184.375 C 313.394531 184.484375 313.667969 184.617188 313.929688 184.777344 C 314.191406 184.9375 314.429688 185.121094 314.65625 185.332031 C 314.878906 185.539062 315.082031 185.765625 315.257812 186.015625 C 315.4375 186.261719 315.589844 186.527344 315.71875 186.804688 C 315.84375 187.082031 315.941406 187.371094 316.011719 187.667969 C 316.082031 187.964844 316.125 188.265625 316.136719 188.574219 C 316.144531 188.878906 316.125 189.183594 316.078125 189.484375 C 316.027344 189.785156 315.949219 190.078125 315.84375 190.367188 C 315.738281 190.652344 315.601562 190.925781 315.441406 191.183594 C 315.28125 191.445312 315.097656 191.6875 314.886719 191.910156 C 314.679688 192.132812 314.453125 192.335938 314.203125 192.515625 C 313.957031 192.691406 313.691406 192.847656 313.414062 192.972656 C 313.136719 193.101562 312.847656 193.199219 312.550781 193.269531 C 312.253906 193.339844 311.953125 193.378906 311.644531 193.390625 C 311.339844 193.402344 311.035156 193.382812 310.734375 193.332031 C 310.433594 193.285156 310.140625 193.207031 309.851562 193.097656 C 309.566406 192.992188 309.292969 192.859375 309.03125 192.699219 C 308.773438 192.539062 308.53125 192.351562 308.308594 192.144531 C 308.082031 191.9375 307.882812 191.707031 307.703125 191.460938 C 307.523438 191.210938 307.371094 190.949219 307.246094 190.671875 C 307.117188 190.390625 307.019531 190.105469 306.949219 189.808594 C 306.878906 189.507812 306.839844 189.207031 306.828125 188.902344 C 306.816406 188.597656 306.835938 188.292969 306.882812 187.992188 C 306.933594 187.691406 307.011719 187.394531 307.117188 187.109375 C 307.226562 186.824219 307.359375 186.550781 307.519531 186.289062 C 307.679688 186.03125 307.867188 185.789062 308.074219 185.5625 C 308.28125 185.339844 308.511719 185.140625 308.757812 184.960938 C 309.007812 184.78125 309.269531 184.628906 309.546875 184.503906 C 309.824219 184.375 310.113281 184.277344 310.410156 184.207031 C 310.707031 184.136719 311.011719 184.09375 311.316406 184.085938 C 311.621094 184.074219 311.925781 184.09375 312.226562 184.140625 Z M 312.226562 184.140625 " fill-opacity="1" fill-rule="nonzero"/><path fill="#9240fb" d="M 333.59375 167.4375 C 333.890625 167.507812 334.179688 167.605469 334.457031 167.734375 C 334.734375 167.859375 335 168.011719 335.246094 168.191406 C 335.496094 168.371094 335.722656 168.570312 335.929688 168.796875 C 336.140625 169.019531 336.324219 169.261719 336.484375 169.519531 C 336.644531 169.78125 336.78125 170.054688 336.886719 170.339844 C 336.992188 170.628906 337.070312 170.921875 337.121094 171.222656 C 337.167969 171.523438 337.1875 171.828125 337.175781 172.132812 C 337.167969 172.441406 337.125 172.742188 337.054688 173.039062 C 336.984375 173.335938 336.886719 173.625 336.757812 173.902344 C 336.632812 174.179688 336.480469 174.441406 336.300781 174.691406 C 336.121094 174.9375 335.921875 175.167969 335.695312 175.375 C 335.472656 175.585938 335.230469 175.769531 334.972656 175.929688 C 334.710938 176.089844 334.4375 176.222656 334.152344 176.332031 C 333.863281 176.4375 333.570312 176.515625 333.269531 176.5625 C 332.96875 176.613281 332.664062 176.632812 332.359375 176.621094 C 332.050781 176.609375 331.75 176.570312 331.453125 176.5 C 331.15625 176.429688 330.867188 176.332031 330.589844 176.203125 C 330.3125 176.078125 330.046875 175.925781 329.800781 175.746094 C 329.550781 175.566406 329.324219 175.367188 329.117188 175.140625 C 328.90625 174.917969 328.722656 174.675781 328.5625 174.417969 C 328.402344 174.15625 328.265625 173.882812 328.160156 173.597656 C 328.054688 173.308594 327.976562 173.015625 327.925781 172.714844 C 327.878906 172.414062 327.859375 172.109375 327.871094 171.804688 C 327.878906 171.496094 327.921875 171.195312 327.992188 170.898438 C 328.0625 170.601562 328.160156 170.3125 328.289062 170.035156 C 328.414062 169.757812 328.566406 169.496094 328.746094 169.246094 C 328.925781 169 329.125 168.769531 329.351562 168.5625 C 329.574219 168.351562 329.816406 168.167969 330.074219 168.007812 C 330.335938 167.847656 330.609375 167.714844 330.894531 167.605469 C 331.183594 167.5 331.476562 167.421875 331.777344 167.375 C 332.078125 167.324219 332.382812 167.304688 332.6875 167.316406 C 332.996094 167.328125 333.296875 167.367188 333.59375 167.4375 Z M 333.59375 167.4375 " fill-opacity="1" fill-rule="nonzero"/><path fill="#9240fb" d="M 205.660156 227.582031 L 226.683594 212.515625 L 228.195312 214.625 L 207.171875 229.691406 Z M 205.660156 227.582031 " fill-opacity="1" fill-rule="nonzero"/><path fill="#9240fb" d="M 227.917969 212.261719 L 250.664062 222.015625 L 249.640625 224.398438 L 226.894531 214.648438 Z M 227.917969 212.261719 " fill-opacity="1" fill-rule="nonzero"/><path fill="#9240fb" d="M 247.625 221.925781 L 266.757812 201.589844 L 268.648438 203.367188 L 249.515625 223.703125 Z M 247.625 221.925781 " fill-opacity="1" fill-rule="nonzero"/><path fill="#9240fb" d="M 271.511719 200.558594 L 291.460938 210.835938 L 290.269531 213.144531 L 270.320312 202.867188 Z M 271.511719 200.558594 " fill-opacity="1" fill-rule="nonzero"/><path fill="#9240fb" d="M 289.679688 210.488281 L 310.304688 188.085938 L 312.214844 189.84375 L 291.589844 212.246094 Z M 289.679688 210.488281 " fill-opacity="1" fill-rule="nonzero"/><path fill="#9240fb" d="M 309.882812 188.605469 L 332.515625 168.226562 L 334.253906 170.15625 L 311.621094 190.53125 Z M 309.882812 188.605469 " fill-opacity="1" fill-rule="nonzero"/><path stroke-linecap="butt" transform="matrix(0.000000000000000545, 8.902074, -8.981557, 0.00000000000000055, 227.306806, 225.764559)" fill="none" stroke-linejoin="miter" d="M 0.000119776 -0.000199022 L 4.120034 -0.000199022 " stroke="#ffb016" stroke-width="1" stroke-opacity="1" stroke-miterlimit="4"/><path stroke-linecap="butt" transform="matrix(0.000000000000000545, 8.902074, -8.981557, 0.00000000000000055, 290.531706, 223.519169)" fill="none" stroke-linejoin="miter" d="M 0.0000406375 0.0000507179 L 4.119955 0.0000507179 " stroke="#ffb016" stroke-width="1" stroke-opacity="1" stroke-miterlimit="4"/><path stroke-linecap="butt" transform="matrix(0.000000000000000545, 8.902074, -8.981557, 0.00000000000000055, 332.540716, 180.935055)" fill="none" stroke-linejoin="miter" d="M -0.0001641 0.000184074 L 4.120189 0.000184074 " stroke="#ffb016" stroke-width="1" stroke-opacity="1" stroke-miterlimit="4"/><path stroke-linecap="butt" transform="matrix(0.000000000000000545, 8.902074, -8.981557, 0.00000000000000055, 332.540716, 233.883659)" fill="none" stroke-linejoin="miter" d="M -0.0000950611 0.000184074 L 4.120258 0.000184074 " stroke="#ffb016" stroke-width="1" stroke-opacity="1" stroke-miterlimit="4"/><path stroke-linecap="butt" transform="matrix(0.000000000000000545, 8.902074, -8.981557, 0.00000000000000055, 311.854628, 215.381168)" fill="none" stroke-linejoin="miter" d="M 0.000184787 -0.000093564 L 4.120099 -0.000093564 " stroke="#9240fb" stroke-width="1" stroke-opacity="1" stroke-miterlimit="4"/><path stroke-linecap="butt" transform="matrix(-0.000000000000019669, 9.109163, -8.981557, -0.000000000000019393, 268.978541, 225.844229)" fill="none" stroke-linejoin="miter" d="M -0.0000525565 -0.00021463 L 2.383365 -0.00021463 " stroke="#9240fb" stroke-width="1" stroke-opacity="1" stroke-miterlimit="4"/></svg>